<?xml version="1.0" standalone="no"?><!DOCTYPE svg PUBLIC "-//W3C//DTD SVG 1.1//EN" "http://www.w3.org/Graphics/SVG/1.1/DTD/svg11.dtd"><svg t="1536938406681" class="icon" style="" viewBox="0 0 1024 1024" version="1.1" xmlns="http://www.w3.org/2000/svg" p-id="7804" xmlns:xlink="http://www.w3.org/1999/xlink" width="200" height="200"><defs><style type="text/css"></style></defs><path d="M512 0C179.33 0 0 179.33 0 512s179.33 512 512 512 512-179.33 512-512S844.67 0 512 0zM666.366 699.877c-1.393 19.495-10.445 29.244-27.851 29.244L403.878 729.121c-13.228 0-23.671-2.785-32.027-8.356-6.963-8.356-10.443-18.103-10.443-28.547 0-15.317 21.582-43.861 64.749-87.726l9.052-9.052c27.155-27.153 54.306-55.003 81.461-84.246 37.598-38.991 55.699-69.623 55.699-93.297 0-41.079-25.066-72.41-62.662-72.41l-18.799 2.089c-4.874 0.696-11.836 3.482-21.584 8.356l-27.153 26.458c-18.104 17.406-29.94 26.457-34.814 26.457-19.495 0-29.242-14.621-29.242-43.168l0-12.532 2.089-8.356 4.176-7.658c16.712-17.406 33.422-29.244 51.524-36.902 29.242-11.837 54.306-17.406 74.498-17.406 38.991 0 71.018 12.532 96.082 36.902 25.762 25.064 38.992 56.395 38.992 93.993 0 34.116-20.192 74.498-58.488 120.451-19.495 22.977-51.521 57.091-97.475 100.956l-25.066 24.369 140.645 0C639.908 659.495 673.328 656.71 666.366 699.877z" p-id="7805" fill="#38f"></path></svg>