<?xml version="1.0" standalone="no"?><!DOCTYPE svg PUBLIC "-//W3C//DTD SVG 1.1//EN" "http://www.w3.org/Graphics/SVG/1.1/DTD/svg11.dtd"><svg t="1536938427292" class="icon" style="" viewBox="0 0 1024 1024" version="1.1" xmlns="http://www.w3.org/2000/svg" p-id="8682" xmlns:xlink="http://www.w3.org/1999/xlink" width="200" height="200"><defs><style type="text/css"></style></defs><path d="M511.73 19.122c-272.229 0-493.009 220.788-493.009 493.009s220.788 493.009 493.009 493.009c272.229 0 493.009-220.788 493.009-493.009 0-272.229-220.788-493.009-493.009-493.009v0zM630.845 738.556c-35.359 32.455-85.007 49.527-143.472 49.527-59.707 0-108.813-18.572-132.609-34.386l-14.029-9.346 34.257-101.38 23.941 15.957c14.711 9.763 49.657 24.485 85.289 24.485 37.132 0 76.758-17.744 76.758-67.687 0-34.257-23.66-70.846-89.818-70.846h-55.436v-98.49h54.057c31.634 0 76.074-17.883 76.074-57.767 0-30.531-19.676-47.316-55.166-47.316-28.189 0-58.058 13.76-75.11 25.585l-23.798 16.363-33.836-96.844 13.076-9.618c25.171-18.572 76.199-40.305 136.732-40.305 110.187 0 159.431 70.564 159.431 140.447 0 45.396-21.045 85.15-57.91 112.249 41.126 23.246 73.584 66.717 73.584 129.175-0.142 46.773-18.572 89.545-51.989 120.235v0zM630.845 738.556z" p-id="8683" fill="#bfbfbf"></path></svg>