<?xml version="1.0" standalone="no"?><!DOCTYPE svg PUBLIC "-//W3C//DTD SVG 1.1//EN" "http://www.w3.org/Graphics/SVG/1.1/DTD/svg11.dtd"><svg t="1551374357541" class="icon" style="" viewBox="0 0 1024 1024" version="1.1" xmlns="http://www.w3.org/2000/svg" p-id="2121" xmlns:xlink="http://www.w3.org/1999/xlink" width="200" height="200"><defs><style type="text/css"></style></defs><path d="M476.577686 1024a65.163444 65.163444 0 0 1-45.288593-18.501764L103.563516 677.912295C52.107668 625.478996 23.272844 556.568654 23.272844 483.539051c0-73.00633 28.811551-141.916672 80.267399-193.861245A272.522831 272.522831 0 0 1 297.517852 209.456952c66.373622 0 129.651981 23.645021 179.571833 66.839075A272.429741 272.429741 0 0 1 656.661518 209.456952c73.076148 0 142.009762 28.788279 193.977608 80.220854A272.569376 272.569376 0 0 1 930.906526 483.539051c0 73.029602-28.811551 141.939944-80.2674 193.861246L522.890277 1004.962965a65.861624 65.861624 0 0 1-46.312591 19.037035z m-166.446054-744.725072c-57.972192 0-112.593122 22.295207-153.320274 63.068904C115.618753 383.187348 93.090819 436.78428 93.090819 494.197929c0 57.390376 22.527933 111.476034 63.720539 151.784279L462.009002 948.131133a21.27121 21.27121 0 0 0 29.695912 0l305.663097-301.706745A212.805189 212.805189 0 0 0 861.08855 494.174656c0-57.413649-22.527933-111.476034-63.231813-151.807551A215.970271 215.970271 0 0 0 644.536463 279.274928c-57.972192 0-112.593122 22.295207-153.320275 63.068904a19.013762 19.013762 0 0 1-13.405051 5.725074 18.222492 18.222492 0 0 1-13.428324-5.701801A219.042262 219.042262 0 0 0 310.131632 279.274928z m543.18385 628.361779a15.243591 15.243591 0 0 1-15.49959-15.522863c0-8.773792 6.725798-15.499591 15.522863-15.49959 25.832651 0 46.545317-20.712666 46.545317-46.545317 0-8.797065 6.725798-15.522863 15.49959-15.522864 8.797065 0 15.522863 6.725798 15.522864 15.522864A77.800497 77.800497 0 0 1 853.338755 907.636707z m24.133747 69.817976a16.058134 16.058134 0 0 1-16.360679-16.360679 16.058134 16.058134 0 0 1 16.360679-16.360679 90.670278 90.670278 0 0 0 90.530642-90.530642 16.058134 16.058134 0 0 1 16.383951-16.383951 16.058134 16.058134 0 0 1 16.360679 16.360679C1000.724501 921.833029 945.638118 977.454683 877.449229 977.454683zM108.613682 162.911635A15.243591 15.243591 0 0 1 93.090819 147.388772 77.47468 77.47468 0 0 1 170.65859 69.821001c8.797065 0 15.522863 6.725798 15.522863 15.522863a15.243591 15.243591 0 0 1-15.522863 15.499591c-25.832651 0-46.545317 20.712666-46.545317 46.545317A15.243591 15.243591 0 0 1 108.613682 162.911635zM39.633523 139.638977A16.058134 16.058134 0 0 1 23.272844 123.278298 123.135636 123.135636 0 0 1 146.548116 0.003025 16.058134 16.058134 0 0 1 162.908795 16.363704a16.058134 16.058134 0 0 1-16.360679 16.360679 90.670278 90.670278 0 0 0-90.530642 90.530642A16.058134 16.058134 0 0 1 39.61025 139.638977z" fill="#FF7E6B" p-id="2122"></path></svg>