<?xml version="1.0" standalone="no"?><!DOCTYPE svg PUBLIC "-//W3C//DTD SVG 1.1//EN" "http://www.w3.org/Graphics/SVG/1.1/DTD/svg11.dtd"><svg t="1532781917818" class="icon" style="" viewBox="0 0 1024 1024" version="1.1" xmlns="http://www.w3.org/2000/svg" p-id="1889" xmlns:xlink="http://www.w3.org/1999/xlink" width="200" height="200"><defs><style type="text/css"></style></defs><path d="M834.5 123.2H758v62.1c0 23.6-21.6 42.8-48.2 42.8-26.5 0-48.1-19.2-48.1-42.8v-62.1H364.6v62.1c0 23.6-21.6 42.8-48.2 42.8s-48.2-19.2-48.2-42.8v-62.1h-76.5c-51.6 0-93.5 37.3-93.5 83.1v670.3c0 45.8 42 83.1 93.5 83.1h642.6c51.6 0 93.5-37.3 93.5-83.1V206.3c0.2-45.8-41.8-83.1-93.3-83.1zM867.1 864c0 14.8-14.6 26.8-32.7 26.8H191.9c-18 0-32.7-12-32.7-26.8V358.4h707.9V864zM317.3 211.7c12.7 0 23-8 23-17.9V81.7c0-9.9-10.3-17.9-23-17.9s-23.1 8-23.1 17.9V193.9c0 9.8 10.3 17.8 23.1 17.8z m391.7 0c12.7 0 23.1-8 23.1-17.9V81.7c0-9.9-10.3-17.9-23.1-17.9-12.7 0-23 8-23 17.9v112.1c0 9.9 10.3 17.9 23 17.9z m16.4 298.5l-226.2 264c-12.1 14.1-31.6 14.1-43.6 0L328.6 626c-12.1-14.1-12.1-36.9 0-50.9 12.1-14.1 31.6-14.1 43.6 0l105.1 122.7 204.3-238.5c12.1-14.1 31.6-14.1 43.6 0 12.2 14 12.2 36.8 0.2 50.9z" p-id="1890" fill="#969A97"></path></svg>