<?xml version="1.0" encoding="iso-8859-1"?>
<svg xmlns="http://www.w3.org/2000/svg" xmlns:xlink="http://www.w3.org/1999/xlink" version="1.1" viewBox="0 0 44 44" enable-background="new 0 0 44 44" width="512px" height="512px">
  <g>
    <g>
      <g>
        <path fill-rule="evenodd" d="M22.001,0C9.851,0,0,9.851,0,22s9.851,22,22.001,22S44,34.149,44,22     S34.151,0,22.001,0z M22.001,41.998C10.956,41.998,2.002,33.047,2.002,22c0-11.047,8.954-19.998,19.999-19.998     C33.046,2.002,42,10.953,42,22C42,33.047,33.046,41.998,22.001,41.998z M22.001,11.002c3.037,0,5.788,1.228,7.777,3.219     l1.414-1.412C28.841,10.457,25.59,9,22.001,9c-7.18,0-13,5.822-13,13c0,7.178,5.82,13,13,13c3.589,0,6.84-1.457,9.191-3.809     l-1.414-1.412c-1.989,1.99-4.74,3.219-7.777,3.219C15.926,32.998,11,28.075,11,22S15.926,11.002,22.001,11.002z" fill="#933EC5"/>
      </g>
    </g>
  </g>
</svg>
