<?xml version="1.0" standalone="no"?><!DOCTYPE svg PUBLIC "-//W3C//DTD SVG 1.1//EN" "http://www.w3.org/Graphics/SVG/1.1/DTD/svg11.dtd"><svg t="1539967928031" class="icon" style="" viewBox="0 0 1024 1024" version="1.1" xmlns="http://www.w3.org/2000/svg" p-id="1446" xmlns:xlink="http://www.w3.org/1999/xlink" width="200" height="200" fill="#053a5c"><defs><style type="text/css"></style></defs><path d="M512 0C229.23 0 0 229.23 0 512s229.23 512 512 512 512-229.23 512-512S794.77 0 512 0z m316.78 828.78a446.4 446.4 0 1 1 96-142.42 446.59 446.59 0 0 1-96 142.42z" p-id="1447"></path><path d="M690.75 480H640v-96a128 128 0 0 0-256 0v96h-50.75A64 64 0 0 0 288 589.25l156.12 156.12a96.11 96.11 0 0 0 135.76 0L736 589.25A64 64 0 0 0 690.75 480zM534.63 700.12a32 32 0 0 1-45.26 0L333.25 544H448V384a64 64 0 0 1 128 0v160h114.75z" p-id="1448"></path></svg>