<?xml version="1.0" standalone="no"?><!DOCTYPE svg PUBLIC "-//W3C//DTD SVG 1.1//EN" "http://www.w3.org/Graphics/SVG/1.1/DTD/svg11.dtd"><svg t="1551374675858" class="icon" style="" viewBox="0 0 1024 1024" version="1.1" xmlns="http://www.w3.org/2000/svg" p-id="5401" xmlns:xlink="http://www.w3.org/1999/xlink" width="200" height="200"><defs><style type="text/css"></style></defs><path d="M512 504.433498m-504.433498 0a504.433498 504.433498 0 1 0 1008.866996 0 504.433498 504.433498 0 1 0-1008.866996 0Z" fill="#FFD04F" p-id="5402"></path><path d="M249.694581 695.210246a85.350148 85.350148 0 0 1-85.249261-85.249261v-70.620689a85.249261 85.249261 0 1 1 170.498522 0v70.620689A85.350148 85.350148 0 0 1 249.694581 695.210246z m0-210.348768a55.084138 55.084138 0 0 0-54.983251 54.983251v70.62069a54.983251 54.983251 0 1 0 109.966503 0v-70.62069A55.084138 55.084138 0 0 0 249.694581 484.861478z" p-id="5403"></path><path d="M366.824039 775.213399V1008.866995H63.054187V775.213399a93.824631 93.824631 0 0 1 93.521971-93.52197h116.826798l233.653596-210.348769 1.109753 3.228374a140.232512 140.232512 0 0 1-18.159605 124.695961L366.824039 775.213399" fill="#FFFFFF" p-id="5404"></path><path d="M366.824039 1024H63.054187A15.133005 15.133005 0 0 1 47.921182 1008.866995V775.213399a108.755862 108.755862 0 0 1 108.654976-108.654975h110.975369l229.416355-206.414188a15.334778 15.334778 0 0 1 13.922364-3.430147 15.536552 15.536552 0 0 1 10.08867 10.08867l1.008867 3.127487a156.172611 156.172611 0 0 1-20.17734 138.214779L381.957044 779.955074V1008.866995a15.133005 15.133005 0 0 1-15.133005 15.133005zM78.187192 993.73399h273.503842V775.213399a14.830345 14.830345 0 0 1 2.824828-8.676256l123.081773-175.946404a125.704828 125.704828 0 0 0 21.085321-90.79803L283.491626 692.990739a15.334778 15.334778 0 0 1-10.08867 3.833694H156.576158A78.388966 78.388966 0 0 0 78.187192 775.213399z" p-id="5405"></path><path d="M168.178128 1024a15.133005 15.133005 0 0 1-15.133005-15.133005V798.518227a15.133005 15.133005 0 0 1 30.26601 0V1008.866995a15.133005 15.133005 0 0 1-15.133005 15.133005zM774.305419 695.210246a85.350148 85.350148 0 0 1-85.249261-85.249261v-70.620689a85.249261 85.249261 0 0 1 170.498522 0v70.620689A85.350148 85.350148 0 0 1 774.305419 695.210246z m0-210.348768a55.084138 55.084138 0 0 0-54.983252 54.983251v70.62069a54.983251 54.983251 0 1 0 109.966503 0v-70.62069A55.084138 55.084138 0 0 0 774.305419 484.861478z" p-id="5406"></path><path d="M657.175961 775.213399V1008.866995H960.945813V775.213399a93.824631 93.824631 0 0 0-93.521971-93.52197H750.597044L516.943448 471.34266l-1.109753 3.228374a140.232512 140.232512 0 0 0 18.159605 124.695961l123.182661 175.946404" fill="#FFFFFF" p-id="5407"></path><path d="M960.945813 1024H657.175961a15.133005 15.133005 0 0 1-15.133005-15.133005V779.955074L522.08867 607.943251a156.172611 156.172611 0 0 1-20.17734-138.214778l1.008867-3.127488a15.536552 15.536552 0 0 1 10.08867-10.08867 15.133005 15.133005 0 0 1 14.023251 3.430148l229.416355 206.615961h110.975369A108.755862 108.755862 0 0 1 976.078818 775.213399V1008.866995a15.133005 15.133005 0 0 1-15.133005 15.133005z m-288.636847-30.26601H945.812808V775.213399a78.388966 78.388966 0 0 0-78.388966-78.388966H750.597044a15.334778 15.334778 0 0 1-10.08867-3.833694l-215.19133-193.702463a125.704828 125.704828 0 0 0 21.085321 90.798029L669.484138 766.738916a14.830345 14.830345 0 0 1 2.824828 8.676256z" p-id="5408"></path><path d="M855.821872 1024a15.133005 15.133005 0 0 1-15.133005-15.133005V798.518227a15.133005 15.133005 0 0 1 30.26601 0V1008.866995a15.133005 15.133005 0 0 1-15.133005 15.133005zM512 353.103448a15.133005 15.133005 0 0 1-15.133005-15.133005v-100.886699a15.133005 15.133005 0 0 1 30.26601 0v100.886699A15.133005 15.133005 0 0 1 512 353.103448zM405.160985 377.417143a14.931232 14.931232 0 0 1-10.69399-4.136355l-38.639606-38.538719A15.133005 15.133005 0 0 1 377.316256 312.748768l38.639606 38.53872a15.233892 15.233892 0 0 1 0 21.38798 15.032118 15.032118 0 0 1-10.794877 4.741675zM618.839015 377.417143a15.032118 15.032118 0 0 1-10.794877-4.136355 15.233892 15.233892 0 0 1 0-21.38798L646.683744 312.748768a15.133005 15.133005 0 0 1 21.488867 21.387981L629.533005 373.280788a14.931232 14.931232 0 0 1-10.69399 4.136355z" p-id="5409"></path></svg>