<?xml version="1.0" standalone="no"?><!DOCTYPE svg PUBLIC "-//W3C//DTD SVG 1.1//EN" "http://www.w3.org/Graphics/SVG/1.1/DTD/svg11.dtd"><svg t="1551331427535" class="icon" style="" viewBox="0 0 1024 1024" version="1.1" xmlns="http://www.w3.org/2000/svg" p-id="4809" xmlns:xlink="http://www.w3.org/1999/xlink" width="200" height="200"><defs><style type="text/css"></style></defs><path d="M50.477176 969.637647l289.129412 0 0 67.072-289.129412 0L50.477176 969.637647z" p-id="4810" fill="#FF7E6B"></path><path d="M729.208471 907.113412l256.752941 0-126.885647 129.656471L729.208471 907.113412z" p-id="4811" fill="#FF7E6B"></path><path d="M50.477176-0.030118l289.129412 0L339.606588 64.993882l-289.129412 0L50.477176-0.030118z" p-id="4812" fill="#FF7E6B"></path><path d="M373.669647-0.030118l289.099294 0L662.768941 64.993882l-289.099294 0L373.669647-0.030118z" p-id="4813" fill="#FF7E6B"></path><path d="M729.208471 163.689412l256.752941 0 0 710.535529-256.752941 0L729.208471 163.689412z" p-id="4814" fill="#FF7E6B"></path><path d="M373.669647 969.637647l289.099294 0 0 67.072-289.099294 0L373.669647 969.637647z" p-id="4815" fill="#FF7E6B"></path><path d="M729.208471 66.469647c0 0-0.301176-64.391529 127.879529-64.391529 128.210824 0 128.873412 64.391529 128.873412 64.391529l0 65.234824-256.752941 0L729.208471 66.469647z" p-id="4816" fill="#FF7E6B"></path><path d="M50.477176 99.056941l0 838.535529 289.129412 0L339.606588 99.056941 50.477176 99.056941zM307.350588 260.999529 82.703059 260.999529 82.703059 228.321882l224.647529 0L307.350588 260.999529zM307.350588 196.336941 82.703059 196.336941 82.703059 163.689412l224.647529 0L307.350588 196.336941z" p-id="4817" fill="#FF7E6B"></path><path d="M373.669647 99.056941l0 838.535529 289.099294 0L662.768941 99.056941 373.669647 99.056941zM630.543059 258.921412l-224.617412 0L405.925647 226.243765l224.617412 0L630.543059 258.921412zM630.543059 194.288941l-224.617412 0L405.925647 161.611294l224.617412 0L630.543059 194.288941z" p-id="4818" fill="#FF7E6B"></path></svg>