 <svg version="1.0" xmlns="http://www.w3.org/2000/svg" width="700.000000pt" height="698.000000pt" viewBox="0 0 700.000000 698.000000" preserveAspectRatio="xMidYMid meet">
<metadata>
Created by potrace 1.12, written by Peter Selinger 2001-2015
</metadata>
<g transform="translate(0.000000,698.000000) scale(0.100000,-0.100000)" fill="#000000" stroke="none">
<path d="M3090 6949 c-662 -71 -1303 -341 -1809 -762 -192 -160 -456 -435
-598 -622 -287 -379 -501 -849 -603 -1320 -45 -211 -62 -377 -67 -675 -9 -495
31 -788 164 -1195 160 -491 428 -926 812 -1319 298 -304 576 -509 936 -691
593 -300 1295 -419 1995 -341 672 76 1274 330 1801 760 121 99 420 402 528
535 147 181 279 390 390 615 91 183 187 417 210 513 5 21 18 70 29 108 122
425 151 1019 76 1505 -92 589 -336 1136 -712 1600 -111 136 -357 387 -497 504
-492 415 -1080 678 -1725 772 -133 19 -785 29 -930 13z m875 -108 c327 -50
537 -104 800 -208 689 -272 1295 -790 1667 -1423 409 -696 556 -1513 417
-2315 -105 -607 -385 -1191 -784 -1638 -474 -531 -1054 -887 -1725 -1057 -521
-133 -1175 -131 -1695 4 -82 22 -152 43 -274 83 -24 7 -101 37 -170 65 -487
197 -931 518 -1287 930 -521 603 -814 1392 -814 2197 0 313 53 694 134 956 55
181 69 218 126 355 113 270 240 492 406 713 452 601 1060 1025 1764 1230 202
59 356 90 580 116 156 19 164 19 450 15 209 -2 306 -8 405 -23z"></path>
<path d="M3205 6788 c-396 -32 -799 -141 -1162 -314 -328 -158 -594 -347 -877
-624 -303 -296 -481 -538 -655 -888 -172 -344 -264 -651 -317 -1052 -24 -186
-25 -657 -1 -850 80 -648 339 -1238 758 -1725 86 -100 284 -296 399 -396 454
-393 1037 -654 1671 -745 177 -26 677 -31 872 -9 686 76 1302 347 1817 800 88
77 292 287 373 384 423 504 673 1109 737 1781 20 209 11 605 -20 840 -28 215
-108 514 -201 747 -39 99 -165 351 -223 446 -245 403 -624 800 -1006 1057
-304 203 -643 357 -995 450 -346 91 -790 129 -1170 98z m600 -48 c437 -36 853
-159 1255 -372 291 -154 508 -316 761 -568 102 -102 213 -219 246 -260 310
-387 523 -818 637 -1292 14 -59 26 -121 26 -137 0 -28 -2 -29 -28 -22 -54 16
-92 41 -92 61 0 24 -45 28 -54 5 -7 -19 -26 -20 -26 -1 0 24 31 40 69 37 32
-2 41 2 55 24 25 38 8 53 -37 31 -34 -16 -67 -21 -67 -11 0 3 5 14 12 25 14
22 3 39 -14 22 -15 -15 -61 -15 -76 0 -9 9 -15 9 -23 1 -15 -15 -5 -42 18 -50
47 -16 66 -57 22 -46 -19 5 -21 3 -14 -27 10 -45 -16 -36 -28 11 -12 47 -24
57 -43 37 -16 -15 -15 -20 10 -62 14 -24 26 -50 26 -57 0 -7 7 -21 17 -31 9
-10 13 -21 10 -24 -11 -12 -36 17 -63 72 -24 50 -44 63 -44 28 0 -17 -5 -17
-31 -4 -11 6 -24 30 -30 55 -15 60 -35 76 -51 40 -10 -23 -9 -32 5 -57 20 -35
15 -48 -18 -48 -18 0 -24 6 -27 25 -4 37 -17 35 -42 -8 l-21 -38 25 -20 c19
-16 35 -20 74 -17 49 3 51 2 56 -26 5 -30 33 -56 46 -43 5 4 2 23 -5 43 -16
43 -10 51 21 30 12 -9 30 -16 40 -16 10 0 18 -5 18 -11 0 -14 72 -79 88 -79
21 0 25 27 7 54 -24 36 -6 33 70 -14 93 -57 113 -39 49 44 -42 55 -37 75 7 28
35 -37 32 -36 69 -17 28 15 30 14 34 -7 59 -287 62 -766 6 -1100 -20 -121 -63
-319 -80 -368 -5 -14 -21 -65 -35 -115 -105 -351 -350 -789 -619 -1105 -71
-83 -350 -353 -446 -431 -321 -262 -704 -462 -1135 -592 -481 -145 -1097 -167
-1632 -58 -507 104 -1003 346 -1423 694 -111 93 -316 298 -413 414 -88 107
-251 335 -292 408 -15 28 -31 55 -35 60 -5 6 -44 82 -88 170 -177 355 -276
693 -322 1100 -13 118 -13 589 1 713 50 463 204 926 441 1322 93 157 360 511
374 498 5 -6 -52 -197 -76 -253 -12 -27 -33 -62 -47 -77 -32 -33 -25 -58 16
-58 20 0 36 8 49 25 28 36 35 31 28 -19 -12 -78 24 -66 48 16 16 55 11 72 -21
87 -18 8 -23 15 -16 22 15 15 45 -3 62 -34 13 -24 12 -42 -5 -111 -7 -27 -5
-29 20 -22 23 6 26 3 26 -19 0 -16 -6 -25 -16 -25 -9 0 -14 -3 -12 -7 2 -5 12
-26 21 -49 30 -69 107 -89 94 -25 -4 20 -1 33 12 45 15 14 19 14 39 0 43 -30
58 13 20 54 l-23 24 24 19 c13 10 31 19 40 19 12 0 10 -5 -8 -19 -28 -21 -24
-24 49 -42 30 -7 57 -14 59 -15 2 -2 -17 -27 -41 -56 -121 -142 -258 -370
-358 -593 -59 -130 -139 -387 -161 -512 -5 -32 -17 -96 -25 -143 -21 -115 -31
-580 -15 -721 26 -230 72 -429 145 -632 225 -622 724 -1177 1327 -1478 278
-138 529 -214 848 -254 193 -25 644 -17 816 14 279 50 467 110 710 225 288
137 509 300 765 562 237 244 389 464 517 749 173 382 243 761 227 1225 -9 271
-39 460 -111 700 -68 226 -182 466 -320 673 -51 77 -85 136 -75 132 36 -15 93
-27 99 -21 4 3 -4 20 -16 37 -18 23 -22 40 -18 67 9 63 34 137 46 137 6 0 40
-26 75 -57 36 -32 69 -58 74 -58 18 0 44 39 40 62 -2 18 -8 22 -26 20 -26 -4
-99 46 -85 57 8 8 68 26 114 35 44 9 94 49 97 79 5 43 -18 42 -119 -6 -133
-63 -149 -66 -203 -27 -24 17 -49 43 -57 56 -11 21 -19 24 -48 22 -31 -3 -36
-7 -39 -30 -3 -24 3 -30 58 -58 72 -36 74 -55 6 -54 -52 0 -93 25 -114 67 -16
33 -38 35 -45 5 -16 -60 75 -128 170 -128 29 0 53 -4 53 -10 0 -5 -18 -33 -40
-62 -28 -38 -40 -63 -40 -88 l-1 -35 -47 55 c-222 261 -511 510 -757 653 -144
83 -400 196 -540 237 -289 85 -473 110 -810 110 -313 0 -421 -11 -669 -72
-485 -117 -928 -377 -1285 -755 -77 -81 -102 -102 -107 -89 -3 9 -44 56 -91
104 -47 48 -95 107 -107 131 -15 33 -29 47 -50 52 -17 5 -34 15 -38 24 -5 8
-17 15 -27 15 -26 0 -63 -44 -59 -71 2 -12 -3 -24 -9 -26 -20 -7 -5 89 17 108
17 15 50 81 50 100 0 5 -12 14 -27 20 l-28 11 125 121 c260 251 559 462 862
607 112 54 130 59 105 32 -23 -25 -21 -37 9 -57 24 -16 26 -16 40 2 25 33 28
56 8 70 -28 20 -28 20 196 98 173 61 329 100 555 140 169 31 605 43 830 25z
m-65 -670 c474 -42 898 -200 1292 -481 454 -325 804 -810 965 -1334 81 -267
105 -420 110 -730 6 -316 -17 -516 -91 -773 -192 -666 -623 -1212 -1233 -1561
-235 -134 -537 -242 -818 -291 -756 -131 -1514 62 -2105 537 -149 120 -346
324 -452 468 -238 323 -396 680 -467 1055 -97 507 -51 1013 136 1485 39 99
130 285 171 349 14 23 41 66 61 96 269 423 695 782 1166 983 386 165 835 235
1265 197z m-2594 -612 c-3 -13 -6 -29 -6 -35 0 -23 -19 -14 -26 11 -7 29 1 46
23 46 11 0 14 -6 9 -22z m54 -34 c0 -8 -4 -12 -10 -9 -5 3 -10 10 -10 16 0 5
5 9 10 9 6 0 10 -7 10 -16z m40 -114 c0 -5 -5 -10 -11 -10 -5 0 -7 5 -4 10 3
6 8 10 11 10 2 0 4 -4 4 -10z m5310 -1205 c10 -13 9 -15 -8 -15 -22 0 -36 13
-25 24 10 10 20 7 33 -9z m-50 -15 c0 -5 -2 -10 -4 -10 -3 0 -8 5 -11 10 -3 6
-1 10 4 10 6 0 11 -4 11 -10z m95 -31 c4 -6 5 -13 1 -16 -8 -8 -56 6 -56 17 0
13 47 13 55 -1z"></path>
<path d="M3575 6582 c-28 -18 -54 -27 -85 -27 -54 -2 -70 -9 -70 -35 0 -21 35
-50 61 -50 10 0 32 12 49 26 51 43 46 19 -8 -44 -69 -79 -76 -85 -141 -103
-50 -14 -56 -19 -53 -40 4 -36 23 -49 76 -51 42 -2 50 1 72 30 31 40 105 84
153 91 27 5 37 12 39 29 4 29 -20 38 -59 22 -50 -21 -46 -2 15 59 57 57 58 59
44 87 -17 38 -44 39 -93 6z"></path>
<path d="M2240 6404 c-18 -31 -43 -66 -56 -77 -26 -22 -23 -37 6 -37 21 0 55
43 65 83 9 32 25 36 25 5 0 -21 1 -20 30 7 40 38 37 69 -6 73 -29 3 -35 -2
-64 -54z"></path>
<path d="M4959 6333 c-26 -51 -56 -66 -85 -42 -13 11 -19 9 -35 -11 -10 -14
-17 -29 -15 -35 4 -14 46 -19 59 -6 16 16 27 13 27 -8 0 -10 -7 -22 -16 -25
-26 -10 -140 -7 -170 4 -21 8 -31 8 -42 -4 -13 -12 -12 -18 7 -45 25 -35 52
-39 108 -16 34 15 36 14 59 -10 l23 -25 -25 0 c-29 0 -42 -24 -24 -45 18 -21
5 -43 -27 -47 -20 -2 -29 -10 -33 -28 -7 -30 -44 -39 -69 -16 -16 15 -20 15
-31 1 -19 -23 -4 -65 24 -65 30 0 82 26 90 45 9 23 35 19 29 -5 -3 -11 -14
-20 -24 -20 -14 0 -19 -7 -19 -29 0 -62 58 -53 89 14 26 56 46 51 37 -11 -5
-37 -3 -45 15 -55 30 -16 61 15 57 55 -2 23 -11 35 -34 47 -27 13 -30 18 -21
34 7 14 7 20 -1 23 -16 5 -15 22 1 22 7 0 24 14 37 32 l23 31 -22 -6 c-14 -3
-21 -1 -18 6 2 7 26 14 53 17 41 4 49 8 52 28 3 18 -1 22 -24 22 -14 0 -42
-10 -61 -22 l-35 -21 7 21 c5 16 2 22 -10 22 -9 0 -13 5 -10 10 10 17 109 11
170 -10 65 -22 101 -25 110 -10 11 19 -16 40 -50 40 -39 0 -65 8 -65 21 0 5
10 9 23 9 36 0 61 23 53 48 -10 29 -36 35 -81 17 -20 -9 -44 -14 -53 -10 -13
5 -13 8 2 23 19 22 21 53 4 70 -21 21 -35 13 -59 -35z m106 -83 c-3 -5 -13
-10 -21 -10 -8 0 -14 5 -14 10 0 6 9 10 21 10 11 0 17 -4 14 -10z m-75 -20 c0
-13 -7 -20 -20 -20 -22 0 -23 1 -14 24 9 23 34 20 34 -4z"></path>
<path d="M2295 6338 c-2 -7 -5 -26 -7 -41 -2 -15 -7 -26 -13 -25 -5 2 -9 5 -8
8 1 3 5 13 8 23 5 12 2 17 -9 17 -9 0 -19 -6 -22 -14 -10 -25 -55 -49 -67 -37
-6 6 -19 11 -29 11 -14 0 -16 -6 -11 -32 11 -63 84 -114 96 -69 6 25 -2 34
-19 20 -20 -16 -29 10 -10 29 14 15 18 15 31 1 13 -13 14 -24 4 -70 -13 -61
-25 -89 -39 -89 -6 0 -10 16 -10 35 0 19 -4 35 -10 35 -6 0 -8 -23 -4 -60 4
-40 2 -60 -5 -60 -6 0 -11 19 -11 43 0 34 -6 49 -26 68 -23 21 -25 29 -20 71
6 41 4 48 -16 62 -28 20 -68 21 -68 2 0 -8 11 -27 24 -43 13 -15 27 -44 31
-63 4 -19 18 -55 31 -78 13 -24 27 -67 30 -95 6 -39 14 -57 38 -79 56 -51 70
-32 39 54 -17 47 -16 48 4 68 12 10 24 28 28 40 10 30 25 24 25 -10 0 -20 9
-39 25 -54 14 -13 25 -31 25 -40 0 -9 6 -16 13 -16 20 0 37 22 37 47 0 27 7
28 60 7 48 -19 70 -13 70 19 0 16 -9 28 -27 36 -16 8 -35 17 -43 21 -18 8 -70
106 -70 131 0 9 -6 22 -14 28 -11 9 -18 6 -35 -15 -32 -41 -36 -22 -7 35 31
61 32 67 6 81 -15 8 -21 8 -25 -2z m45 -186 c0 -10 16 -37 36 -60 24 -28 31
-42 20 -42 -15 0 -47 40 -59 73 -7 19 -22 22 -32 7 -8 -14 -25 -13 -25 1 0 14
30 38 48 39 6 0 12 -8 12 -18z m-15 -82 c3 -5 1 -10 -4 -10 -6 0 -11 5 -11 10
0 6 2 10 4 10 3 0 8 -4 11 -10z"></path>
<path d="M682 4468 c-7 -7 -12 -18 -12 -24 0 -18 -44 -50 -97 -70 l-46 -18
-32 37 c-33 38 -55 44 -99 27 -39 -15 -31 -35 27 -70 28 -18 92 -72 140 -121
103 -104 148 -187 155 -281 4 -58 15 -71 40 -46 17 17 15 128 -3 171 -21 50
-20 50 28 43 52 -8 89 12 68 37 -10 13 -9 20 4 41 10 15 15 39 13 63 -3 35 -5
38 -32 36 -19 -1 -34 5 -46 19 -13 16 -23 19 -45 14 -27 -7 -27 -7 -21 -67 4
-33 10 -67 13 -75 8 -22 -30 -17 -45 6 -8 13 -9 27 -4 38 4 9 6 33 3 52 -5 26
-11 35 -26 35 -13 0 -21 -8 -23 -22 -2 -13 -7 -23 -11 -23 -11 0 -41 34 -41
47 0 11 46 23 89 23 15 0 32 5 39 12 14 14 16 67 2 102 -11 29 -20 32 -38 14z
m121 -263 c7 -16 -8 -29 -23 -20 -15 9 -12 35 4 35 8 0 16 -7 19 -15z"></path>
<path d="M6311 4347 c-36 -18 -36 -34 1 -57 39 -24 58 -25 58 -5 0 13 4 14 21
4 14 -7 25 -7 31 -1 6 6 -6 21 -33 41 -49 35 -46 35 -78 18z"></path>
<path d="M455 4217 c-23 -19 -25 -25 -16 -50 6 -16 11 -39 11 -53 0 -28 16
-31 42 -7 17 15 19 15 38 -2 28 -25 25 -35 -7 -29 -18 3 -40 -3 -61 -16 -50
-31 -39 -46 48 -70 108 -29 155 -9 112 49 -13 18 -18 32 -12 36 11 7 13 55 4
79 -3 9 -16 16 -29 16 -16 0 -30 11 -44 35 -24 41 -49 45 -86 12z"></path>
<path d="M6326 3218 c-13 -42 -23 -98 -18 -103 3 -3 13 2 23 11 17 15 22 13
73 -32 31 -26 56 -51 56 -54 0 -11 -139 -62 -150 -55 -5 3 -10 13 -10 21 0 8
-4 14 -10 14 -5 0 -10 -13 -10 -29 0 -15 -5 -42 -11 -60 -14 -38 -6 -50 19
-28 9 9 60 32 111 52 77 30 101 35 135 29 55 -9 76 -21 76 -44 0 -11 5 -20 10
-20 6 0 10 12 10 27 0 15 5 41 12 60 14 37 6 52 -18 32 -18 -15 -88 -13 -119
3 -35 19 -155 142 -155 160 0 21 -19 34 -24 16z"></path>
<path d="M670 3105 c0 -24 -31 -34 -165 -51 l-128 -17 -19 23 c-25 31 -34 19
-20 -29 7 -21 12 -50 12 -65 0 -14 5 -26 10 -26 6 0 10 9 10 20 0 23 24 31 96
33 l49 2 6 -70 c4 -42 2 -73 -4 -76 -5 -4 -33 -10 -61 -14 -47 -6 -52 -4 -71
20 -25 30 -38 24 -24 -12 5 -13 9 -42 9 -65 0 -22 6 -54 14 -71 7 -18 18 -44
24 -59 13 -33 32 -37 32 -8 0 17 7 20 39 20 41 0 54 -10 65 -50 4 -14 12 -35
19 -48 9 -20 7 -27 -21 -55 -29 -28 -34 -30 -53 -19 -12 8 -23 12 -25 10 -4
-5 53 -148 66 -163 5 -6 13 -29 18 -50 4 -21 14 -41 21 -43 10 -3 12 2 8 21
-8 29 1 37 65 61 45 17 68 15 68 -4 0 -5 -23 -44 -51 -88 -50 -79 -50 -80 -39
-123 7 -24 25 -62 40 -85 16 -22 32 -52 35 -65 3 -14 24 -46 46 -72 37 -43 45
-47 84 -47 35 0 48 5 64 26 12 15 21 37 21 50 0 27 3 28 32 13 14 -8 28 -7 49
2 66 27 67 95 4 214 -43 82 -62 102 -57 59 3 -17 -17 -32 -114 -84 -65 -35
-126 -64 -138 -64 -13 -1 -23 8 -30 27 -9 24 -6 37 18 81 16 29 37 64 46 76
l18 23 27 -21 c36 -29 86 -29 112 1 36 39 37 85 2 162 -5 11 -14 37 -21 58
-13 39 -33 51 -33 19 0 -31 -13 -39 -140 -87 -121 -47 -126 -47 -145 -30 -11
10 -20 26 -20 36 0 10 59 71 135 140 74 67 134 124 132 126 -2 2 -78 8 -168
13 -198 12 -207 14 -221 46 -19 42 4 53 151 72 l132 17 18 -23 c19 -26 33 -19
25 12 -3 12 -6 39 -7 60 -3 41 -27 65 -27 27 0 -23 -17 -29 -90 -33 l-45 -3
-8 64 c-4 36 -6 70 -3 76 2 7 28 15 57 18 45 6 56 3 75 -14 23 -21 39 -14 23
11 -5 8 -9 36 -9 63 0 26 -4 47 -10 47 -5 0 -10 -7 -10 -15z m9 -462 c8 -6
-73 -83 -83 -80 -12 4 -37 77 -31 88 5 7 104 1 114 -8z m181 -262 c42 -80 -60
-146 -117 -75 -12 16 -23 33 -23 37 0 9 97 55 117 56 7 1 17 -8 23 -18z m134
-291 c21 -52 20 -66 -4 -90 -33 -33 -75 -26 -105 17 -14 21 -25 43 -25 50 0
13 77 60 101 62 11 1 23 -14 33 -39z m-143 -66 c46 -78 -9 -163 -81 -124 -20
11 -64 89 -55 98 14 14 101 60 110 58 5 -1 17 -16 26 -32z"></path>
<path d="M6386 2883 c-3 -3 -6 -26 -6 -49 0 -24 -4 -46 -10 -49 -15 -9 -12
-25 5 -25 7 0 18 7 23 17 8 14 18 15 73 7 l64 -9 0 -54 c-1 -47 -5 -57 -32
-82 -60 -53 -170 -47 -238 12 -31 28 -35 37 -35 81 0 41 5 54 29 79 16 16 37
29 45 29 30 0 16 20 -14 22 -16 0 -36 1 -42 2 -7 1 -12 -5 -10 -12 1 -6 -7
-29 -18 -49 -48 -90 -7 -197 95 -244 147 -68 292 75 246 241 -6 21 -15 26 -56
32 -77 11 -95 17 -95 33 0 16 -14 27 -24 18z"></path>
<path d="M6240 2523 c-55 -20 -85 -41 -106 -74 -64 -103 12 -242 141 -257 47
-5 75 -29 75 -64 0 -25 -42 -106 -58 -112 -13 -6 -211 94 -244 122 -14 11 -15
19 -7 34 6 11 8 22 5 25 -9 10 -36 -18 -36 -37 0 -10 -12 -32 -26 -49 -29 -35
-24 -63 7 -35 19 17 24 15 132 -41 131 -68 149 -82 141 -107 -3 -10 -1 -18 5
-18 5 0 25 30 43 68 18 37 44 86 57 109 l25 43 -25 26 c-27 28 -26 29 41 66
19 11 39 35 51 63 19 43 19 48 5 100 -12 40 -26 62 -56 88 -54 45 -124 66
-170 50z m57 -57 c69 -18 120 -51 139 -89 14 -26 14 -36 4 -68 -18 -54 -50
-72 -115 -67 -70 6 -145 46 -169 90 -18 31 -18 40 -8 77 8 26 22 46 40 55 34
19 45 19 109 2z"></path>
<path d="M5982 2013 c-23 -3 -48 -18 -78 -48 -42 -42 -44 -47 -44 -102 0 -90
52 -156 147 -183 118 -35 235 72 204 187 -27 99 -121 159 -229 146z m76 -63
c126 -57 162 -134 96 -205 -30 -33 -82 -33 -149 -1 -91 43 -137 113 -110 166
32 62 86 75 163 40z"></path>
<path d="M1089 1953 c-1 -4 -2 -19 -2 -33 -2 -21 -23 -37 -121 -97 -110 -66
-121 -70 -141 -57 -32 21 -37 6 -10 -30 13 -17 28 -43 34 -59 13 -34 36 -37
27 -3 -7 28 -1 33 143 121 80 48 98 55 117 46 34 -15 35 -3 3 42 -16 22 -29
46 -29 53 0 14 -19 30 -21 17z"></path>
<path d="M1186 1812 l6 -39 -117 -73 c-103 -65 -119 -72 -137 -61 -29 18 -35
5 -12 -27 11 -15 23 -35 27 -44 10 -27 26 -21 24 8 -2 23 10 34 91 87 51 33
94 58 96 56 2 -2 -7 -35 -19 -74 -60 -185 -78 -246 -73 -250 6 -6 106 53 192
114 61 42 84 49 103 30 7 -7 13 -7 17 -1 3 6 -8 32 -26 59 l-33 48 -3 -33 c-3
-29 -13 -39 -72 -78 -38 -24 -72 -49 -75 -54 -9 -14 -25 -12 -25 3 0 7 20 73
44 148 l45 137 -21 41 c-25 51 -40 53 -32 3z"></path>
<path d="M5794 1797 c-11 -12 -28 -33 -39 -46 l-20 -23 32 6 c28 6 39 2 89
-39 31 -26 65 -52 75 -58 11 -7 19 -15 19 -19 0 -5 -68 -8 -152 -8 l-151 0
-77 -80 c-42 -44 -74 -81 -71 -81 3 -1 14 0 25 1 10 1 38 -17 62 -41 l44 -43
-47 -48 c-26 -26 -52 -48 -58 -48 -6 0 -31 20 -55 45 -41 42 -43 45 -27 63 36
40 2 29 -48 -16 -51 -44 -65 -73 -26 -53 14 8 33 -6 102 -77 123 -126 123
-126 108 -151 -26 -41 1 -32 50 17 27 27 47 53 44 56 -3 3 -12 1 -20 -6 -11
-9 -24 -1 -66 40 l-52 52 55 50 c30 27 59 48 64 46 6 -1 27 -23 49 -48 34 -40
37 -49 27 -68 -6 -12 -9 -24 -6 -27 5 -6 106 90 106 101 0 3 -12 3 -26 0 -22
-6 -35 2 -86 52 -33 33 -78 81 -100 107 l-41 48 29 30 c16 16 34 28 41 27 7
-2 60 -41 118 -88 91 -72 105 -88 100 -107 -8 -34 8 -28 44 18 35 43 36 59 3
38 -14 -9 -24 -10 -34 -3 -90 70 -158 128 -158 136 0 6 60 9 165 7 118 -3 165
-1 163 7 -2 6 -48 47 -103 92 -128 102 -141 117 -126 136 20 24 -5 27 -25 3z"></path>
<path d="M1457 1494 c-3 -3 -1 -14 5 -24 15 -23 10 -29 -106 -133 -78 -70 -92
-78 -117 -73 -16 3 -29 2 -29 -2 0 -4 23 -29 52 -57 50 -49 50 -49 44 -20 -6
29 -1 36 95 123 56 51 110 92 120 92 19 0 39 -28 39 -55 0 -9 -39 -59 -87
-111 -73 -78 -93 -94 -118 -94 l-29 0 39 -40 c21 -22 43 -40 47 -40 5 0 6 15
3 33 -4 29 2 39 64 107 38 41 72 72 75 69 4 -3 2 -77 -3 -165 -5 -87 -6 -163
-4 -167 3 -4 35 25 71 65 154 168 160 174 173 161 16 -15 29 -17 29 -3 0 11
-71 79 -83 80 -5 0 -6 -13 -2 -30 6 -26 0 -38 -57 -100 -35 -38 -66 -70 -70
-70 -4 0 -5 70 -1 155 l6 155 -69 73 c-75 79 -77 80 -87 71z"></path>
<path d="M5314 1277 c-3 -9 -16 -18 -29 -21 -32 -8 -82 -52 -100 -87 -19 -36
-19 -107 -1 -150 15 -34 62 -84 103 -106 30 -17 98 -16 132 1 15 8 42 31 60
51 25 29 31 45 31 80 0 25 -4 45 -10 45 -5 0 -10 -15 -10 -32 -1 -87 -92 -143
-168 -104 -61 32 -112 111 -112 173 1 45 24 76 73 96 33 14 39 14 73 -4 50
-25 63 -10 22 27 -47 43 -57 47 -64 31z"></path>
<path d="M1843 1123 c-31 -6 -63 -50 -63 -86 0 -17 16 -61 35 -98 19 -38 35
-77 35 -88 0 -25 -26 -51 -52 -51 -30 0 -92 66 -83 88 28 67 5 70 -32 4 -22
-40 -23 -43 -6 -49 10 -3 35 -21 56 -40 56 -50 137 -40 165 22 18 39 16 49
-28 134 -44 86 -47 102 -24 125 22 22 38 20 74 -11 29 -24 31 -30 25 -70 -8
-52 6 -56 29 -8 9 19 21 37 26 40 16 10 11 25 -7 25 -9 0 -31 13 -48 29 -31
30 -64 41 -102 34z"></path>
<path d="M5020 1064 c-30 -20 -62 -42 -70 -49 -8 -7 -53 -33 -100 -58 -163
-85 -215 -116 -224 -130 -6 -9 -2 -24 10 -43 l19 -28 3 32 c3 32 33 62 62 62
10 0 40 -46 80 -124 63 -119 64 -125 47 -143 -26 -30 -9 -35 32 -10 20 13 45
27 55 33 30 16 31 33 1 31 -23 -2 -32 9 -90 116 -36 65 -65 122 -65 128 0 5
16 17 35 26 32 15 36 15 53 0 30 -27 47 -22 28 8 -18 27 -14 45 9 45 8 0 51
-54 95 -120 71 -105 79 -122 68 -139 -17 -28 -2 -38 22 -16 11 10 44 33 73 52
28 18 67 43 85 54 21 14 31 27 28 36 -4 8 -9 26 -12 39 -9 36 -24 29 -24 -11
0 -27 -6 -38 -27 -52 -16 -9 -37 -25 -49 -35 -28 -25 -43 -17 -83 44 l-33 51
23 18 c51 39 67 44 87 26 32 -29 33 -6 1 39 -31 45 -55 59 -44 25 4 -14 -5
-27 -34 -50 -21 -17 -41 -31 -44 -31 -13 0 -68 92 -63 105 2 7 26 26 51 41 41
24 49 25 71 14 13 -8 27 -10 31 -7 6 7 -35 57 -46 57 -4 0 -31 -16 -61 -36z"></path>
<path d="M2060 970 c-22 -31 -20 -54 2 -32 21 21 98 8 98 -17 0 -5 -32 -64
-71 -131 -64 -109 -74 -121 -95 -116 -41 11 -35 -12 8 -33 24 -11 51 -26 60
-33 23 -17 36 -2 16 18 -14 15 -12 22 24 86 52 92 107 178 114 178 3 0 19 -10
36 -21 25 -18 29 -27 24 -50 -8 -41 16 -38 32 4 11 29 11 34 -10 50 -23 19
-184 116 -204 124 -7 2 -22 -10 -34 -27z"></path>
<path d="M2366 863 c-4 -4 3 -14 14 -23 l21 -16 -47 -110 c-53 -122 -78 -162
-96 -160 -28 3 -16 -19 13 -27 17 -5 42 -15 56 -24 29 -19 42 -10 20 15 -16
17 -14 25 33 133 64 145 63 143 89 147 34 5 25 18 -31 43 -29 12 -56 24 -59
26 -3 2 -9 0 -13 -4z"></path>
<path d="M2494 755 c-19 -46 -5 -68 20 -30 15 22 22 25 49 19 18 -3 35 -8 38
-10 8 -4 -57 -264 -68 -275 -4 -4 -16 -9 -26 -11 -27 -5 -25 -23 3 -26 14 -1
42 -7 63 -14 42 -13 60 -4 32 16 -17 12 -17 18 15 147 18 74 36 138 41 143 13
15 77 -22 81 -46 5 -35 28 -34 28 1 0 24 4 31 20 31 32 0 34 -23 11 -125 -12
-51 -21 -115 -19 -141 3 -40 8 -51 39 -76 47 -38 134 -44 170 -13 24 22 48 71
60 125 27 119 35 145 49 145 9 0 14 -7 12 -17 -4 -24 10 -23 26 2 9 15 23 20
54 20 l41 0 -7 -57 c-25 -202 -30 -228 -53 -238 -13 -5 -23 -12 -23 -15 0 -8
123 -30 130 -24 2 3 -3 10 -13 15 -21 12 -22 45 -2 175 8 54 15 105 15 112 0
18 65 15 84 -4 9 -8 16 -22 16 -30 0 -26 19 -14 22 14 2 19 9 27 23 27 19 0
20 -8 23 -148 2 -125 0 -148 -13 -153 -42 -17 -4 -24 107 -22 l123 3 20 37
c14 27 17 40 9 48 -8 8 -17 2 -32 -24 -21 -35 -22 -36 -86 -36 -75 0 -80 7
-74 91 l3 44 52 3 c44 3 53 0 63 -18 16 -30 23 -19 23 40 0 60 -9 73 -23 36
-9 -25 -13 -27 -62 -24 l-53 3 0 60 0 60 62 3 c59 3 64 1 75 -23 16 -35 30
-31 26 8 l-3 32 -155 6 c-140 5 -324 23 -358 34 -7 3 -21 0 -30 -6 -13 -8 -27
-7 -57 5 -42 18 -73 6 -36 -13 27 -15 26 -30 -4 -149 -36 -134 -77 -168 -156
-127 -45 24 -50 50 -29 151 30 138 34 149 58 152 31 5 27 21 -5 27 -16 3 -44
10 -63 15 -19 5 -48 11 -65 14 -56 9 -199 46 -238 61 -13 6 -21 -1 -33 -30z"></path>
<path d="M4355 753 c-38 -14 -87 -30 -107 -35 -43 -12 -47 -19 -16 -33 16 -8
32 -43 67 -143 45 -130 45 -134 27 -148 -30 -22 -10 -29 31 -11 21 9 49 18 63
19 30 4 29 23 -2 23 -17 0 -26 12 -45 60 -13 33 -21 65 -19 72 7 18 73 28 91
13 24 -20 26 -8 7 43 -17 48 -32 61 -32 28 0 -24 -22 -42 -56 -44 -25 -2 -30
3 -46 47 -22 57 -17 66 47 85 40 12 48 12 64 -3 34 -31 44 -8 13 31 l-17 22
-70 -26z"></path>
<path d="M3989 676 c-46 -32 -69 -80 -69 -147 0 -98 52 -168 138 -188 110 -24
206 79 188 202 -20 130 -157 200 -257 133z m152 -37 c31 -35 53 -105 54 -166
0 -91 -107 -140 -167 -75 -32 33 -58 108 -58 167 0 102 107 148 171 74z"></path>
<path d="M3419 5757 c-29 -19 -35 -30 -39 -72 -5 -46 -7 -50 -32 -53 -25 -3
-28 -8 -28 -38 0 -22 6 -37 15 -40 8 -4 15 -14 15 -24 0 -15 -6 -17 -40 -13
-37 5 -40 3 -50 -23 -29 -81 -52 -98 -137 -106 -47 -5 -52 -3 -55 16 -2 11
-12 22 -23 25 -26 4 -35 19 -35 58 0 42 -42 73 -98 73 -31 0 -47 -7 -72 -30
-20 -19 -30 -36 -26 -46 9 -22 -11 -54 -34 -54 -16 0 -20 -7 -20 -35 0 -20 6
-37 15 -43 13 -7 15 -30 13 -137 -4 -172 -23 -178 -23 -8 l0 128 -51 3 c-63 4
-151 -28 -200 -71 -31 -26 -44 -31 -110 -35 l-74 -5 0 32 c0 27 -5 34 -35 47
-22 9 -35 21 -35 33 0 39 -95 85 -130 63 -11 -7 -26 -12 -33 -12 -16 0 -57
-42 -57 -58 0 -7 -8 -15 -17 -19 -56 -20 -74 -86 -28 -103 20 -8 25 -16 25
-45 0 -28 -4 -35 -20 -35 -12 0 -22 -9 -26 -24 -3 -13 -15 -26 -26 -29 -14 -4
-18 -11 -14 -24 8 -26 -5 -41 -39 -45 -30 -3 -30 -3 -33 -75 l-3 -72 38 -24
c64 -41 75 -60 81 -135 3 -54 1 -70 -12 -81 -18 -15 -22 -91 -6 -107 7 -7 9
-120 8 -319 l-3 -308 -40 -22 c-45 -25 -85 -77 -85 -109 0 -12 -5 -27 -12 -34
-7 -7 -10 -40 -9 -86 3 -113 -33 -241 -86 -301 -31 -35 -88 -74 -131 -89 -23
-9 -97 -18 -165 -21 -141 -7 -142 -7 -224 -47 -112 -53 -168 -142 -168 -268 0
-47 6 -86 15 -105 l15 -30 220 -5 220 -5 -220 -5 -220 -5 -3 -62 -3 -63 2431
0 2430 0 0 59 c0 44 -4 60 -16 65 -9 3 -142 7 -297 8 l-282 3 295 5 294 5 12
40 c37 123 -4 255 -103 331 -69 53 -135 72 -274 79 -151 8 -203 23 -265 78
-81 71 -135 232 -121 364 4 38 2 55 -9 64 -8 6 -14 22 -14 34 0 33 -45 83 -97
108 l-45 22 1 275 c1 151 4 314 8 363 4 62 3 87 -6 87 -7 0 -11 25 -11 74 0
84 15 112 75 140 l36 17 -3 77 -3 77 -32 3 c-29 3 -33 7 -33 32 0 19 -7 33
-20 40 -11 6 -20 17 -20 26 0 8 -11 19 -25 24 -19 7 -25 17 -25 40 0 23 6 33
25 40 46 17 28 83 -27 103 -10 4 -18 15 -18 25 0 27 -28 49 -80 62 -61 16
-115 -6 -136 -55 -8 -19 -20 -35 -28 -35 -19 0 -46 -33 -46 -57 0 -28 -11 -30
-81 -22 -43 5 -70 15 -106 41 -63 45 -127 68 -191 68 -47 0 -52 -2 -58 -25 -3
-14 -5 -73 -2 -130 2 -58 0 -105 -4 -105 -5 0 -8 61 -8 135 0 111 3 137 15
141 8 4 15 19 15 35 0 21 -7 31 -27 41 -20 9 -29 22 -31 43 -9 79 -107 113
-172 59 -21 -18 -29 -32 -25 -45 8 -26 -11 -57 -37 -61 -14 -2 -24 -11 -26
-24 -3 -19 -8 -21 -55 -16 -63 5 -115 40 -124 83 -8 40 -27 53 -68 46 -29 -5
-35 -3 -35 12 0 10 9 21 21 24 16 4 20 12 17 39 -2 26 -8 34 -26 36 -25 4 -45
42 -36 67 4 10 -7 28 -31 50 -45 43 -94 47 -146 12z m139 -30 c25 -26 4 -37
-73 -37 -74 0 -90 6 -77 27 21 34 120 40 150 10z m12 -107 c6 -11 20 -20 30
-20 11 0 20 -4 20 -9 0 -6 -24 -11 -52 -13 -49 -3 -53 -5 -53 -28 0 -21 6 -26
35 -30 l35 -5 0 -155 0 -155 -100 0 -100 0 0 155 0 155 40 5 c35 4 40 8 40 30
0 23 -4 25 -50 28 -50 3 -90 22 -47 22 12 0 27 9 34 20 11 17 24 20 85 20 62
0 74 -3 83 -20z m-609 -96 c47 -24 31 -39 -44 -42 -73 -3 -88 11 -44 41 28 20
51 21 88 1z m1147 0 c12 -8 22 -22 22 -30 0 -12 -13 -14 -67 -12 -74 3 -90 18
-46 42 36 20 63 20 91 0z m-800 -131 l-3 -98 -100 0 -100 0 0 30 c0 29 2 30
55 37 46 5 60 12 87 42 18 20 33 44 33 54 0 10 3 22 7 25 19 19 23 -2 21 -90z
m388 57 c20 -50 61 -80 122 -88 44 -7 47 -9 47 -37 l0 -30 -100 0 -100 0 -3
84 c-4 119 6 141 34 71z m-716 -30 c6 -11 20 -20 30 -20 42 0 18 -19 -27 -22
-44 -3 -48 -5 -48 -28 0 -21 6 -26 35 -30 l35 -5 2 -594 c2 -327 4 -596 7
-598 2 -2 217 -4 477 -4 l474 1 5 597 5 598 30 5 c24 4 30 10 30 30 0 23 -4
25 -47 28 -46 3 -70 22 -28 22 10 0 24 9 30 20 9 17 21 20 74 20 55 0 64 -3
69 -20 3 -12 14 -20 26 -20 42 0 19 -19 -26 -22 -44 -3 -48 -5 -48 -28 0 -21
5 -26 33 -28 l32 -3 0 -629 0 -628 58 -53 c70 -65 130 -99 240 -134 l82 -26 0
-77 c0 -80 -15 -138 -42 -169 -26 -31 -37 -59 -44 -114 -5 -46 -2 -63 24 -119
43 -96 51 -118 66 -194 15 -72 38 -106 89 -132 l28 -15 -3 -112 -3 -112 -249
-3 c-212 -2 -247 0 -237 12 6 7 24 16 39 19 42 9 118 81 148 142 l26 55 64 0
c79 0 81 4 65 114 -15 99 -50 189 -108 281 -58 91 -110 144 -208 214 -122 87
-211 125 -395 171 -65 16 -152 21 -166 9 -18 -15 -19 -105 -1 -116 6 -4 39
-12 72 -18 l60 -10 8 -85 c13 -129 19 -620 8 -634 -5 -6 -11 -49 -12 -96 l-4
-85 460 -5 460 -5 -470 -3 c-634 -3 -896 -3 -1525 0 l-535 3 535 5 535 5 -4
90 c-2 50 -6 94 -9 100 -3 5 -8 123 -10 263 -4 225 -2 255 13 278 13 20 16 43
13 98 l-3 71 70 10 70 10 3 53 c4 76 -6 86 -88 77 -57 -6 -135 -24 -235 -53
-39 -12 -168 -76 -208 -103 -211 -146 -311 -294 -353 -521 -20 -110 -15 -118
67 -118 l58 0 23 -47 c31 -63 85 -116 147 -145 28 -12 51 -26 51 -31 0 -4
-107 -6 -237 -5 l-238 3 -3 113 -3 114 41 36 c37 33 44 46 61 122 11 47 36
118 56 159 31 66 35 81 30 129 -4 37 -16 72 -36 104 -17 27 -31 56 -31 63 0 8
-4 17 -10 20 -5 3 -10 46 -10 95 l0 89 78 25 c101 32 200 88 254 143 l43 44 5
627 5 627 35 5 c29 4 35 9 35 30 0 23 -4 25 -47 28 -27 2 -48 7 -48 13 0 5 7
9 15 9 8 0 19 9 25 20 9 17 21 20 70 20 49 0 61 -3 70 -20z m-757 -68 c28 -24
6 -33 -74 -30 -58 2 -74 6 -74 18 0 20 62 40 100 33 17 -3 38 -13 48 -21z
m2669 0 c28 -24 11 -32 -67 -32 -75 0 -96 10 -75 35 22 27 110 25 142 -3z
m-954 -56 l-3 -51 -155 0 c-130 0 -155 2 -158 15 -2 13 16 14 128 10 72 -3
135 -3 140 -2 6 2 10 21 10 41 0 43 6 52 26 44 11 -4 14 -19 12 -57z m-866 17
l3 -38 138 -3 c104 -2 137 -6 134 -15 -3 -9 -44 -12 -153 -12 l-149 0 -3 53
c-2 41 0 52 12 52 10 0 16 -12 18 -37z m-337 -94 l0 -94 -195 0 -195 0 -3 31
-3 31 67 6 c37 4 79 14 94 24 15 10 46 30 69 46 39 26 135 59 156 53 6 -2 10
-42 10 -97z m1606 76 c24 -9 67 -32 96 -51 55 -38 103 -53 166 -54 37 0 38 -1
35 -32 l-3 -33 -197 -3 -198 -2 0 95 0 95 29 0 c16 0 48 -7 72 -15z m-2063
-27 c7 -7 12 -16 12 -20 0 -4 -63 -8 -140 -8 -135 0 -162 6 -122 29 25 15 235
14 250 -1z m2663 2 c43 -23 15 -30 -121 -30 -135 0 -162 6 -122 29 23 14 218
14 243 1z m-2695 -76 c3 -12 4 -33 2 -45 -3 -23 -6 -24 -93 -24 l-90 0 -3 33
c-5 55 -2 57 92 57 81 0 87 -2 92 -21z m2670 2 c3 -13 4 -35 2 -47 -3 -23 -6
-24 -93 -24 l-90 0 -3 42 -3 42 83 4 c46 1 86 4 90 5 4 1 10 -9 14 -22z
m-1566 -6 c10 -18 21 -20 133 -20 107 0 125 2 138 18 15 17 32 19 165 18 l149
-1 0 -520 0 -520 -25 -3 -25 -3 0 223 0 223 -62 46 c-197 150 -517 142 -701
-16 l-43 -37 3 -219 3 -219 -22 0 -23 0 0 518 c0 285 3 522 7 525 3 4 71 7
149 7 133 0 144 -1 154 -20z m-1042 -22 c-2 -18 -7 -33 -13 -33 -5 0 -11 15
-13 33 -3 24 1 32 13 32 12 0 16 -8 13 -32z m2382 -4 c0 -21 -4 -33 -10 -29
-5 3 -10 19 -10 36 0 16 5 29 10 29 6 0 10 -16 10 -36z m-2400 -79 c0 -13 -22
-15 -134 -15 -123 0 -157 6 -139 24 3 3 66 6 140 6 112 0 133 -2 133 -15z
m2670 0 c0 -13 -22 -15 -134 -15 -123 0 -157 6 -139 24 3 3 66 6 140 6 112 0
133 -2 133 -15z m-2625 -73 l0 -34 -180 0 c-177 0 -180 0 -183 22 -8 50 -5 51
185 48 l178 -3 0 -33z m460 27 c4 -5 4 -21 1 -35 l-6 -24 -205 0 c-132 0 -206
4 -210 11 -4 5 -4 21 -1 35 l6 24 205 0 c132 0 206 -4 210 -11z m1800 -24 l0
-30 -205 0 c-190 0 -205 1 -208 18 -9 47 -5 48 210 45 l203 -3 0 -30z m405 0
c0 -19 -3 -35 -7 -35 -161 -4 -347 0 -355 8 -6 6 -8 22 -4 36 l6 26 180 0 180
0 0 -35z m-3075 -46 c4 -5 18 -14 31 -19 22 -9 24 -15 24 -70 0 -61 -7 -72
-31 -44 -7 9 -23 20 -36 25 -20 7 -23 16 -23 57 0 27 3 52 7 55 9 10 21 8 28
-4z m3150 3 c6 -4 10 -26 10 -50 0 -36 -6 -46 -38 -73 -20 -17 -41 -28 -46
-25 -5 4 -8 30 -7 58 2 39 8 55 22 62 10 6 23 17 27 24 9 14 18 15 32 4z
m-2661 -27 c0 -5 -13 -12 -30 -15 -28 -5 -29 -7 -29 -65 l0 -60 205 0 205 0 0
60 c0 55 -2 60 -22 63 -13 2 -23 7 -23 12 0 10 63 20 73 10 4 -4 7 -45 5 -91
l-3 -84 -235 0 -235 0 -3 79 c-2 44 0 86 2 93 7 16 91 14 90 -2z m2231 -80 l0
-90 -230 0 -230 0 0 85 0 85 33 3 c36 4 45 -15 10 -20 -21 -3 -23 -8 -23 -63
l0 -60 208 -3 207 -2 0 65 c0 62 -1 65 -24 65 -26 0 -40 12 -29 24 4 4 23 6
43 4 l35 -3 0 -90z m-2360 52 l0 -28 -135 -2 c-121 -1 -135 1 -138 17 -9 44 0
47 140 44 l133 -3 0 -28z m2680 22 c4 -5 4 -20 1 -33 -5 -22 -8 -22 -143 -21
-122 1 -138 3 -141 19 -9 43 1 46 142 46 84 0 137 -4 141 -11z m-2230 -74 l0
-40 -175 0 -174 0 -2 35 c-1 19 0 38 3 43 2 4 82 6 176 5 l172 -3 0 -40z
m1850 0 l0 -40 -170 0 -170 0 -3 28 c-7 58 -7 58 175 55 l168 -3 0 -40z
m-2525 -105 c6 -119 25 -118 21 1 -1 48 1 89 6 91 4 2 31 3 60 0 l52 -4 3 -89
c4 -119 22 -116 26 5 l3 95 27 -3 27 -3 0 -112 0 -112 -135 -1 -135 -1 -3 103
c-3 116 0 133 25 128 15 -3 19 -18 23 -98z m2664 90 c25 -9 26 -12 26 -95 0
-50 4 -85 10 -85 6 0 10 37 10 90 l0 90 60 0 59 0 3 -90 c2 -52 7 -90 13 -90
6 0 9 33 7 83 -3 67 0 86 13 97 26 22 33 1 36 -110 l3 -105 -135 -5 c-73 -3
-137 -4 -141 -2 -10 4 -11 216 -1 225 8 9 7 9 37 -3z m-1936 -435 l2 -319 -64
-61 c-77 -74 -143 -108 -283 -145 l-43 -11 0 -109 c0 -109 0 -109 42 -187 35
-66 41 -86 41 -135 -1 -32 -5 -64 -11 -71 -17 -22 -60 -151 -65 -196 -5 -43
-35 -96 -53 -96 -8 0 -23 699 -26 1211 -2 274 15 308 22 44 l5 -195 199 -3
c153 -2 201 1 208 10 10 17 10 489 0 506 -7 9 -55 12 -208 10 l-199 -3 -3 -27
c-4 -31 -17 -37 -26 -12 -8 21 -8 99 1 108 4 3 108 5 232 4 l226 -3 3 -320z
m1861 -510 c2 -599 -1 -835 -9 -835 -19 0 -59 47 -65 77 -18 87 -41 161 -63
206 -40 82 -36 146 16 237 l42 72 0 108 0 109 -42 11 c-138 36 -208 71 -280
139 l-59 56 -3 255 c-1 140 0 288 2 328 l5 72 227 0 228 0 1 -835z m-1075 799
c13 -5 16 -24 16 -105 l0 -99 -115 0 -115 0 0 95 c0 90 1 96 23 105 25 10 167
13 191 4z m153 -53 c21 -10 57 -33 81 -50 35 -26 42 -36 42 -66 l0 -35 -110 0
-110 0 0 88 c0 49 3 91 6 95 7 7 37 -4 91 -32z m-407 -61 l0 -90 -100 0 -100
0 0 35 c0 31 6 40 46 68 56 40 124 77 141 77 10 0 13 -24 13 -90z m-845 -25
l0 -70 -45 0 -45 0 -3 59 c-4 81 0 88 50 84 l43 -3 0 -70z m130 0 l0 -70 -45
0 -45 0 -3 73 -3 73 48 -3 48 -3 0 -70z m125 -1 l0 -75 -47 3 -47 3 -2 65 c0
36 1 68 3 73 2 4 24 7 49 7 l44 0 0 -76z m-425 2 l0 -28 -160 0 c-142 0 -160
2 -163 16 -9 44 -1 47 165 44 l158 -3 0 -29z m2680 1 l0 -28 -160 -1 -160 0 0
23 c0 13 1 27 3 32 2 4 74 6 160 5 l157 -3 0 -28z m-2690 -94 l0 -28 -145 0
c-132 0 -145 2 -148 18 -8 40 0 42 149 40 l144 -1 0 -29z m2680 0 l-1 -28
-152 -3 -152 -3 0 29 c0 16 2 31 4 33 2 2 71 3 153 2 l148 -1 0 -29z m-2500
-158 l0 -140 -45 0 -45 0 -3 129 c-1 72 0 136 3 144 3 9 18 12 47 10 l43 -3 0
-140z m130 0 l0 -140 -47 -3 -48 -3 0 139 c0 76 3 142 7 146 4 4 25 6 48 4
l40 -3 0 -140z m123 3 l-3 -143 -45 0 -44 0 1 140 c1 77 2 141 2 143 1 1 21 2
46 2 l46 0 -3 -142z m590 15 l3 -123 -101 0 -100 0 0 118 c0 65 3 122 7 126 4
4 48 5 98 4 l90 -3 3 -122z m270 0 l3 -123 -116 0 -115 0 0 118 c0 65 3 122 7
126 4 3 54 5 112 4 l106 -3 3 -122z m260 0 l3 -123 -111 0 -110 0 0 118 c0 65
3 122 7 126 4 4 52 5 107 4 l101 -3 3 -122z m-1786 -141 c2 -114 7 -207 11
-207 5 0 9 95 10 210 l2 210 55 0 55 0 5 -210 c3 -130 9 -210 15 -210 6 0 12
80 15 210 l5 210 28 3 27 3 0 -259 0 -260 -142 4 -143 4 -3 246 c-2 259 1 284
39 264 17 -10 19 -27 21 -218z m2663 218 l26 -10 -2 -207 c-1 -157 2 -208 11
-208 9 0 12 53 13 210 l2 210 55 0 55 0 5 -210 c7 -278 25 -275 26 4 1 192 2
205 20 212 10 3 22 5 27 2 4 -2 7 -118 7 -257 l0 -253 -112 -7 c-62 -4 -126
-8 -143 -9 l-30 -2 -3 255 c-1 140 0 260 3 267 5 16 7 16 40 3z m-2666 -599
c-33 -38 -36 -39 -101 -40 -71 -1 -80 5 -50 32 30 27 85 46 136 47 l48 0 -33
-39z m2968 24 c40 -17 73 -43 73 -57 0 -4 -28 -8 -63 -8 -60 0 -65 2 -102 40
l-39 40 47 0 c26 0 64 -7 84 -15z m-2729 -7 c14 -14 17 -984 4 -1006 -7 -10
-127 -12 -568 -10 l-559 3 0 70 c1 85 23 137 74 170 42 27 67 31 259 45 78 6
150 14 160 19 9 5 39 20 66 32 75 37 168 128 209 206 43 84 63 146 81 250 22
124 60 184 136 217 42 18 121 21 138 4z m2566 -18 c64 -39 78 -70 116 -260 15
-74 56 -174 98 -238 47 -72 114 -129 199 -169 68 -31 84 -34 246 -47 201 -15
237 -29 273 -99 23 -44 36 -130 24 -161 l-10 -26 -557 2 -558 3 -3 500 c-1
275 0 506 3 514 8 21 125 9 169 -19z m-1539 -50 c0 -34 -1 -35 -45 -41 -103
-15 -103 -14 -107 -109 -4 -104 -5 -627 -1 -730 l3 -75 -70 0 -70 0 -3 64 c-2
36 2 69 7 74 15 15 15 573 1 582 -14 9 -12 82 2 92 7 4 35 17 62 28 52 22 79
53 35 40 -43 -13 -167 -76 -226 -114 -149 -97 -296 -324 -306 -470 l-3 -46
-49 0 -50 0 -3 43 c-8 112 67 286 174 401 73 79 184 159 281 202 37 17 75 34
83 38 31 16 241 60 270 57 10 -1 15 -13 15 -36z m440 20 c369 -57 691 -356
706 -655 l4 -70 -50 0 -50 0 -12 60 c-6 33 -15 71 -20 85 -25 68 -36 90 -44
90 -13 0 -11 -17 5 -53 38 -89 46 -180 21 -241 -37 -87 -139 -158 -247 -172
-29 -4 -59 -11 -65 -16 -7 -6 -20 -8 -28 -4 -11 4 -15 22 -15 79 0 40 -5 78
-10 83 -7 7 -9 101 -7 275 4 235 8 300 23 347 6 18 135 -89 217 -180 36 -40
69 -70 72 -66 10 9 -64 105 -123 160 -75 70 -220 159 -281 173 -50 11 -35 -14
19 -32 25 -8 51 -20 58 -25 17 -14 15 -70 -3 -94 -22 -29 -22 -556 0 -574 12
-10 15 -29 13 -79 l-3 -66 -75 0 -75 0 -3 66 c-2 50 1 69 13 79 22 18 23 536
0 566 -17 22 -21 139 -4 149 5 4 8 12 7 17 -5 13 -90 37 -130 38 -16 0 -28 3
-29 8 0 4 -2 15 -4 26 -6 31 6 48 29 42 11 -3 53 -10 91 -16z m-1775 -114 c0
-47 -38 -183 -70 -251 -44 -94 -94 -155 -165 -200 -77 -50 -135 -65 -289 -76
-174 -12 -206 -20 -258 -67 -53 -48 -80 -110 -83 -190 -3 -71 -6 -79 -26 -56
-22 27 -17 150 9 200 43 84 164 154 267 154 164 0 290 33 365 96 70 59 120
196 120 328 l0 76 65 0 c49 0 65 -3 65 -14z m3151 -101 c7 -133 25 -188 85
-254 83 -92 150 -118 334 -128 138 -7 205 -28 268 -87 25 -22 53 -60 63 -84
21 -47 25 -135 9 -176 -16 -43 -30 -30 -30 29 0 109 -45 193 -126 237 -41 22
-67 27 -164 32 -63 4 -144 12 -179 17 -160 25 -291 142 -352 314 -25 72 -51
194 -43 206 3 6 33 9 67 7 l62 -3 6 -110z m-2141 -14 c0 -15 5 -32 10 -37 12
-12 7 -500 -7 -629 -6 -62 -11 -80 -23 -78 -72 11 -138 26 -152 33 -10 6 -23
10 -30 10 -28 1 -109 73 -138 122 -49 87 -41 144 45 323 42 87 66 122 113 168
59 58 160 128 175 120 4 -2 7 -17 7 -32z m1978 -788 c-26 -2 -71 -2 -100 0
-29 2 -8 3 47 3 55 0 79 -1 53 -3z m902 -68 c0 -13 -271 -15 -2379 -15 -1319
0 -2382 4 -2385 9 -3 4 -3 11 1 15 3 3 1077 6 2385 6 2107 0 2378 -2 2378 -15z"></path>
<path d="M2900 4630 c0 -365 3 -461 13 -457 9 3 12 103 12 457 0 354 -3 454
-12 458 -10 3 -13 -93 -13 -458z"></path>
<path d="M4050 4630 c0 -293 3 -450 10 -450 7 0 10 157 10 450 0 293 -3 450
-10 450 -7 0 -10 -157 -10 -450z"></path>
<path d="M3054 4087 c-3 -8 -3 -56 -2 -108 l3 -94 58 -3 c44 -2 63 1 82 16 13
10 45 27 72 37 26 10 56 25 66 33 16 14 17 12 17 -40 0 -42 5 -59 20 -73 15
-13 20 -33 22 -88 l3 -71 90 3 c54 2 93 8 97 14 4 7 8 40 8 73 0 46 4 63 15
68 13 5 15 25 13 123 l-3 118 -119 3 c-97 2 -122 0 -136 -13 -16 -14 -18 -14
-23 0 -5 12 -29 15 -142 15 -103 0 -137 -3 -141 -13z m251 -61 c0 -38 -2 -41
-51 -60 -28 -12 -63 -29 -78 -39 -16 -11 -40 -17 -59 -15 -32 3 -32 3 -35 67
-2 35 -1 70 2 78 4 11 29 13 113 11 l108 -3 0 -39z m283 -48 c2 -78 0 -89 -18
-105 -16 -14 -20 -29 -20 -80 l0 -63 -65 0 -65 0 0 64 c0 44 -5 67 -15 76 -11
9 -15 35 -15 107 l0 94 98 -3 97 -3 3 -87z"></path>
<path d="M3635 4077 c-10 -40 -1 -109 15 -118 99 -52 174 -79 219 -79 l51 0 0
110 0 110 -140 0 c-138 0 -140 0 -145 -23z m257 -17 c2 -5 1 -40 -2 -77 l-5
-68 -33 -3 c-18 -2 -39 1 -45 6 -23 18 -82 49 -108 55 -21 5 -28 14 -32 43 -4
21 -4 41 -1 46 7 12 222 10 226 -2z"></path>
<path d="M3407 3596 c-20 -8 -64 -31 -96 -52 -46 -30 -60 -46 -64 -69 -2 -16
-4 -181 -3 -365 l1 -335 239 -3 c238 -2 276 2 248 30 -9 9 -12 103 -12 360 0
291 -2 348 -14 348 -8 0 -36 18 -62 40 -72 60 -154 75 -237 46z m138 -56 l0
-35 -60 0 c-55 0 -60 2 -63 23 -7 46 3 53 65 50 l58 -3 0 -35z m-157 -12 c-2
-18 -11 -24 -35 -26 -38 -4 -43 10 -11 32 32 23 50 20 46 -6z m237 6 c34 -22
31 -36 -7 -32 -25 2 -34 8 -36 26 -4 26 9 28 43 6z m-158 -80 c3 -9 1 -25 -5
-35 -7 -10 -8 -20 -3 -24 8 -4 12 -335 5 -335 -10 0 -84 46 -116 71 -20 16
-39 26 -41 21 -2 -4 -3 -36 -3 -72 l1 -65 80 -1 80 -2 0 -103 0 -104 -90 0
-90 0 -3 324 c-3 259 -1 326 10 332 7 5 48 9 91 9 63 0 79 -3 84 -16z m211 7
c10 -1 12 -66 10 -328 l-3 -328 -90 0 -90 0 -3 105 -4 105 84 0 83 0 1 68 c0
37 -3 67 -8 67 -4 0 -30 -16 -57 -35 -26 -19 -54 -35 -60 -35 -6 0 -14 -7 -17
-15 -15 -37 -21 6 -22 159 -1 95 2 167 7 171 14 8 52 -36 46 -54 -2 -9 -5 -59
-6 -111 -1 -69 -6 -100 -17 -112 -14 -16 -13 -18 2 -18 9 0 39 22 66 50 46 45
50 53 50 97 0 67 -46 128 -122 161 -41 17 -38 50 5 54 28 3 109 2 145 -1z
m-71 -143 c28 -35 24 -97 -8 -138 l-19 -25 2 88 c1 85 6 99 25 75z m-204 -248
c43 -23 37 -35 -20 -35 -43 0 -48 3 -51 23 -2 13 -1 30 2 39 5 12 9 13 21 3 8
-7 30 -20 48 -30z m243 27 c3 -8 0 -26 -6 -41 -9 -25 -14 -27 -55 -24 -54 4
-59 16 -15 40 18 9 38 22 44 28 14 14 26 13 32 -3z"></path>
<path d="M3307 3433 c-7 -11 -1 -72 7 -80 3 -4 21 7 39 24 17 16 40 33 50 36
25 9 21 27 -8 27 -14 0 -29 -8 -35 -20 -6 -11 -15 -20 -21 -20 -6 0 -8 9 -4
20 4 14 2 20 -9 20 -8 0 -17 -3 -19 -7z"></path>
<path d="M3372 3361 c-72 -70 -70 -154 5 -220 61 -54 101 -57 51 -4 -13 14
-18 27 -12 33 5 5 7 47 3 97 -4 65 -2 92 8 104 38 46 -6 37 -55 -10z m18 -52
c-5 -16 -7 -36 -4 -43 8 -21 11 -106 3 -106 -16 0 -42 58 -42 95 0 41 28 99
43 90 5 -3 5 -19 0 -36z"></path>
<path d="M3300 2840 c0 -6 30 -10 70 -10 40 0 70 4 70 10 0 6 -30 10 -70 10
-40 0 -70 -4 -70 -10z"></path>
<path d="M3550 3430 c0 -6 10 -14 23 -19 12 -5 33 -21 46 -35 14 -14 30 -26
36 -26 15 0 13 66 -3 82 -16 16 -28 2 -13 -16 21 -25 -5 -26 -27 -1 -22 25
-62 34 -62 15z"></path>
<path d="M3530 2840 c0 -6 28 -10 65 -10 37 0 65 4 65 10 0 6 -28 10 -65 10
-37 0 -65 -4 -65 -10z"></path>
<path d="M3084 5097 c-2 -7 -3 -85 -2 -172 3 -181 -5 -169 93 -134 71 25 215
49 300 49 101 0 288 -36 349 -67 47 -24 51 -10 51 170 l0 162 -393 3 c-315 2
-394 0 -398 -11z m764 -154 c3 -149 6 -144 -70 -118 -171 58 -432 58 -606 -1
-75 -25 -72 -29 -72 114 0 71 3 132 7 135 4 4 171 6 372 5 l366 -3 3 -132z"></path>
<path d="M4215 4660 c-9 -15 -11 -493 -2 -507 6 -10 59 -13 208 -13 l199 0 0
265 0 265 -199 0 c-117 0 -202 -4 -206 -10z m120 -95 l0 -70 -45 0 -45 0 -3
59 c-4 81 0 88 50 84 l43 -3 0 -70z m130 0 l0 -70 -50 0 -50 0 -3 59 c-4 83
-1 88 55 84 l48 -3 0 -70z m120 -5 l0 -75 -40 4 c-22 1 -43 5 -47 8 -10 5 -10
127 -1 137 4 4 25 6 48 4 l40 -3 0 -75z m-250 -245 l0 -140 -45 0 -45 0 -3
129 c-1 72 0 136 3 144 3 9 18 12 47 10 l43 -3 0 -140z m130 0 l0 -140 -50 0
-50 0 -3 129 c-1 72 0 136 3 144 3 9 19 12 52 10 l48 -3 0 -140z m120 0 l0
-140 -45 0 -45 0 -3 129 c-1 72 0 136 3 144 3 9 18 12 47 10 l43 -3 0 -140z"></path>
<path d="M3994 3508 c-10 -16 -13 -433 -4 -448 8 -13 248 -18 268 -6 18 11 15
147 -4 198 -24 62 -105 164 -165 210 -72 54 -86 61 -95 46z m72 -156 c-1 -53
-5 -103 -10 -110 -4 -7 -4 -18 2 -25 5 -7 9 -41 8 -77 -1 -62 -2 -65 -26 -65
-23 0 -25 4 -28 63 -2 37 2 69 8 77 6 8 7 16 2 19 -10 6 -16 221 -7 237 4 5
16 2 29 -7 23 -14 24 -20 22 -112z m66 40 c22 -26 23 -34 22 -172 l-1 -145
-29 0 -29 0 -2 173 c-1 94 2 172 7 172 4 0 19 -13 32 -28z m75 -100 c26 -58
43 -131 40 -173 -3 -41 -5 -44 -33 -44 l-29 0 0 123 c-1 67 2 122 5 122 3 0
11 -13 17 -28z"></path>
<path d="M4110 3230 c0 -5 5 -10 10 -10 6 0 10 5 10 10 0 6 -4 10 -10 10 -5 0
-10 -4 -10 -10z"></path>
<path d="M2900 3472 c-127 -94 -190 -195 -198 -318 -7 -110 -8 -110 150 -107
l133 2 0 232 c0 146 -4 234 -10 236 -5 1 -39 -19 -75 -45z m58 -200 c-3 -189
-4 -197 -23 -197 -19 0 -20 7 -22 185 -2 157 0 187 14 202 8 10 20 15 24 12 5
-3 8 -94 7 -202z m-81 -24 l-2 -173 -24 -3 c-13 -2 -27 0 -31 5 -3 4 -4 42 0
83 4 41 4 79 2 84 -3 5 -6 34 -8 63 -2 45 2 59 23 83 14 17 29 30 34 30 5 0 8
-75 6 -172z m-90 -50 l-2 -123 -25 0 c-24 0 -25 3 -28 66 -2 49 1 69 12 78 8
7 12 19 10 26 -5 11 24 75 33 75 1 0 1 -55 0 -122z"></path>
<path d="M2840 3230 c0 -5 5 -10 10 -10 6 0 10 5 10 10 0 6 -4 10 -10 10 -5 0
-10 -4 -10 -10z"></path>
<path d="M2369 2343 c-1 -5 -2 -24 -3 -43 l-1 -35 -85 -1 -85 0 -3 -32 c-3
-25 1 -32 15 -33 10 -1 25 -2 33 -3 8 -2 39 -3 68 -4 79 -3 63 -22 -18 -22
l-70 0 0 -128 c0 -86 4 -132 12 -140 9 -9 4 -12 -26 -12 -37 0 -37 0 -34 -37
l3 -37 60 3 c59 3 59 2 41 -17 -17 -20 -17 -21 16 -58 34 -37 35 -37 61 -19
30 20 34 37 12 55 -8 7 -15 19 -15 26 0 11 19 14 80 14 l80 0 0 -28 c0 -36
-16 -52 -52 -52 -32 0 -34 -9 -13 -50 13 -26 19 -29 48 -23 17 3 44 12 59 19
24 12 27 20 30 71 l3 58 55 5 c53 5 55 6 55 35 0 28 -2 30 -45 33 -68 4 -76 9
-56 30 13 15 16 41 16 135 l0 117 -79 0 c-86 0 -126 19 -44 21 26 1 75 2 108
3 l60 1 0 35 c0 34 -1 35 -37 32 -34 -3 -38 -1 -38 21 0 13 -9 32 -20 42 -18
17 -21 17 -45 1 -20 -13 -24 -22 -19 -42 6 -23 4 -25 -22 -22 -25 3 -29 8 -32
38 -2 19 -9 38 -15 42 -16 10 -57 10 -58 1z m-14 -323 c4 -6 -5 -10 -19 -10
-14 0 -26 5 -26 10 0 6 9 10 19 10 11 0 23 -4 26 -10z m165 0 c0 -5 -16 -10
-35 -10 -19 0 -35 5 -35 10 0 6 16 10 35 10 19 0 35 -4 35 -10z m-152 -95 c7
-14 12 -28 12 -30 0 -3 -24 -5 -54 -5 l-54 0 14 30 c20 40 65 42 82 5z m162
20 c0 -3 -7 -17 -16 -30 -12 -19 -25 -25 -50 -25 -38 0 -38 -1 -24 34 8 22 16
26 50 26 22 0 40 -2 40 -5z"></path>
<path d="M2060 2339 c-1 -2 -3 -46 -5 -98 -2 -51 -6 -96 -9 -99 -3 -3 -18 -5
-33 -6 -25 -1 -28 -5 -28 -36 0 -32 3 -35 31 -38 29 -3 32 -6 37 -49 3 -26 3
-108 0 -183 -6 -147 -1 -165 49 -158 23 3 23 3 26 196 l2 192 30 0 c23 0 31 5
36 26 8 30 -7 48 -39 49 -21 0 -22 4 -25 98 -2 87 -5 97 -22 97 -10 0 -25 3
-34 6 -9 3 -16 5 -16 3z"></path>
<path d="M4750 2330 c-22 -6 -25 -11 -23 -48 l2 -42 -80 0 c-62 0 -81 -3 -85
-15 -5 -11 -22 -15 -65 -15 -32 0 -59 3 -59 6 0 3 7 22 16 41 20 40 12 51 -35
55 -34 3 -35 2 -61 -67 -14 -38 -36 -91 -50 -117 -23 -46 -23 -48 -5 -68 26
-29 45 -22 75 30 22 37 32 46 59 48 29 3 33 1 26 -15 -4 -10 -10 -28 -12 -40
-4 -18 -12 -23 -38 -23 l-33 0 -4 -142 c-2 -103 -7 -149 -18 -165 -13 -20 -12
-24 10 -48 13 -14 26 -25 30 -25 4 0 35 22 69 50 33 27 68 53 77 58 14 8 14
12 0 46 l-16 37 -33 -25 c-19 -14 -37 -26 -41 -26 -4 0 -5 53 -4 118 l3 117
32 -2 c30 -3 33 0 44 40 13 44 29 71 29 48 0 -7 9 -25 21 -39 19 -24 20 -38
18 -231 l-1 -206 31 -3 c26 -3 33 1 41 22 9 25 12 26 105 26 93 0 96 -1 105
-26 8 -21 15 -25 42 -22 l33 3 0 110 0 110 -140 5 c-116 4 -140 8 -140 20 0
12 21 16 118 18 l117 3 0 84 0 84 33 3 32 3 0 65 0 65 -77 3 -77 3 -11 38
c-12 47 -27 60 -60 51z m150 -190 c0 -27 -3 -30 -32 -31 -31 -1 -171 0 -210 1
-13 0 -18 8 -18 30 l0 30 130 0 130 0 0 -30z m-70 -125 c0 -24 -2 -25 -75 -25
-73 0 -75 1 -75 25 0 24 2 25 75 25 73 0 75 -1 75 -25z m45 -215 c0 -25 -1
-25 -98 -28 -80 -2 -98 0 -103 13 -3 8 -3 22 0 30 5 13 23 15 103 13 97 -3 98
-3 98 -28z"></path>
<path d="M3285 2320 c-4 -6 -4 -28 0 -50 8 -48 -2 -103 -18 -97 -7 2 -11 18
-9 34 3 27 -1 31 -29 37 -17 3 -35 4 -39 1 -4 -3 -13 -35 -20 -72 -6 -36 -18
-82 -26 -102 -16 -38 -12 -46 27 -56 30 -7 38 1 54 55 11 37 41 52 56 28 11
-16 11 -99 1 -115 -5 -7 -35 -18 -68 -24 -80 -15 -87 -22 -62 -65 11 -19 21
-34 23 -34 1 0 24 9 50 21 25 11 50 18 53 14 4 -4 7 -55 7 -113 l0 -107 38 -3
37 -3 0 126 0 125 26 10 c14 6 32 10 41 10 14 0 14 -2 -2 -20 -21 -24 -16 -41
20 -60 27 -14 29 -14 60 23 39 45 91 148 100 198 4 19 10 42 15 49 36 58 13
-124 -26 -209 -30 -68 -62 -102 -132 -148 l-54 -35 28 -29 c15 -16 33 -29 39
-29 22 0 151 129 178 178 23 43 51 147 70 262 2 14 5 -2 6 -35 1 -90 -19 -298
-31 -312 -6 -7 -30 -13 -54 -13 -48 0 -52 -6 -28 -52 15 -29 17 -30 62 -23 57
8 97 28 107 52 4 10 11 97 16 193 4 96 11 199 14 228 l6 52 -125 0 c-69 0
-127 4 -130 8 -3 5 4 23 15 40 25 43 25 46 -14 60 -47 17 -54 15 -62 -15 -5
-23 -52 -131 -61 -142 -2 -2 -11 0 -21 5 -10 4 -27 8 -38 8 -18 1 -20 8 -20
76 l-1 75 -36 3 c-20 2 -39 -2 -43 -8z m251 -207 c-10 -41 -66 -153 -76 -153
-5 0 -13 12 -16 26 -6 24 -10 26 -45 20 l-39 -6 0 50 c0 38 4 50 15 50 8 0 15
-4 15 -9 0 -5 13 -19 30 -31 l29 -21 37 51 c40 56 60 65 50 23z"></path>
<path d="M2683 1463 c-27 -5 -28 -9 -8 -29 10 -11 15 -36 15 -78 0 -44 -5 -67
-15 -76 -24 -20 -18 -25 35 -25 55 0 56 1 35 29 -20 27 -19 110 1 131 9 9 26
15 38 13 19 -3 21 -10 24 -72 2 -39 -2 -74 -8 -80 -18 -18 -11 -21 40 -22 52
0 60 5 35 26 -18 15 -21 120 -3 138 20 20 55 14 62 -10 11 -41 6 -104 -9 -124
-21 -28 -20 -29 35 -29 47 0 61 7 41 19 -4 3 -11 42 -14 86 -3 44 -11 87 -17
95 -15 18 -63 19 -90 3 -16 -10 -24 -10 -40 0 -25 15 -55 15 -81 0 -17 -10
-23 -10 -26 0 -5 12 -10 13 -50 5z"></path>
<path d="M3040 1461 c0 -6 5 -13 10 -16 6 -3 10 -35 10 -70 0 -84 11 -111 49
-120 17 -3 36 -3 43 1 7 4 31 8 55 9 47 1 65 11 43 25 -11 7 -15 31 -15 92 l0
83 -37 3 c-40 3 -45 -3 -25 -29 18 -24 7 -129 -15 -142 -33 -21 -48 8 -48 94
l0 79 -35 0 c-19 0 -35 -4 -35 -9z"></path>
<path d="M3314 1446 c-24 -37 -11 -67 43 -101 51 -32 62 -58 26 -63 -14 -2
-32 6 -46 22 -32 35 -39 33 -35 -11 3 -37 3 -37 52 -40 65 -4 96 15 96 62 0
34 -11 46 -75 81 -22 12 -27 45 -8 51 7 3 24 -8 38 -23 29 -31 32 -30 37 11 3
30 3 30 -54 33 -52 3 -58 1 -74 -22z"></path>
<path d="M3533 1455 c-76 -53 -36 -215 54 -215 39 0 111 56 94 73 -8 8 -18 4
-34 -11 -13 -12 -33 -22 -46 -22 -28 0 -73 48 -69 73 3 17 12 20 71 22 37 1
70 5 74 8 9 10 -18 67 -38 77 -27 15 -82 12 -106 -5z m80 -23 c22 -24 13 -32
-33 -32 -20 0 -40 3 -43 7 -10 10 23 43 43 43 9 0 24 -8 33 -18z"></path>
<path d="M3723 1452 c13 -14 17 -36 17 -88 0 -100 33 -137 90 -102 15 9 25 10
37 2 12 -8 25 -8 45 0 32 12 35 21 12 30 -13 5 -15 20 -13 89 l4 82 -38 3
c-35 3 -49 -9 -27 -23 6 -3 10 -35 10 -70 0 -55 -3 -66 -21 -75 -35 -19 -48 3
-51 88 l-3 77 -40 3 c-38 3 -39 3 -22 -16z"></path>
<path d="M3983 1463 c-26 -5 -30 -18 -8 -27 11 -4 15 -23 15 -80 0 -41 -4 -78
-10 -81 -23 -14 -7 -23 33 -18 50 7 54 10 39 25 -7 7 -12 38 -12 69 0 48 4 60
22 73 20 14 24 14 40 -1 23 -21 26 -124 3 -143 -24 -20 -18 -25 35 -25 51 0
58 3 41 21 -6 5 -11 38 -12 72 -2 68 7 85 46 80 17 -3 20 -12 23 -66 2 -39 -2
-69 -9 -78 -15 -18 -13 -20 39 -27 39 -5 55 4 32 18 -5 3 -10 39 -10 78 0 107
-32 139 -105 105 -19 -9 -28 -9 -37 0 -16 16 -71 15 -87 0 -11 -10 -14 -10
-18 0 -5 12 -18 13 -60 5z"></path>
</g>
</svg>