<?xml version="1.0" standalone="no"?><!DOCTYPE svg PUBLIC "-//W3C//DTD SVG 1.1//EN" "http://www.w3.org/Graphics/SVG/1.1/DTD/svg11.dtd"><svg t="1532249259454" class="icon" style="" viewBox="0 0 1024 1024" version="1.1" xmlns="http://www.w3.org/2000/svg" p-id="6123" xmlns:xlink="http://www.w3.org/1999/xlink" width="200" height="200"><defs><style type="text/css"></style></defs><path d="M887.623983 958.261787l-55.851029 0c0-164.008354-132.684952-297.829176-300.272831-308.232107l0 0c-6.919597 0.48914-13.82282 1.052982-20.868283 1.052982-7.045463 0-13.948687-0.563842-20.868283-1.052982l0 0c-167.588903 10.401908-300.272831 144.223752-300.272831 308.232107l-55.851029 0c0-155.36858 101.601003-287.454898 244.122997-339.245448-95.088682-48.484248-160.346965-147.094126-160.346965-261.149788 0-161.939229 131.276882-293.216111 293.216111-293.216111s293.216111 131.276882 293.216111 293.216111c0 114.055662-65.258283 212.665541-160.346965 261.149788C786.02298 670.806889 887.623983 802.89423 887.623983 958.261787zM750.535745 357.86655c0-132.494617-107.409289-239.903905-239.903905-239.903905s-239.903905 107.409289-239.903905 239.903905 107.409289 239.903905 239.903905 239.903905S750.535745 490.361167 750.535745 357.86655z" p-id="6124"></path></svg>