<?xml version="1.0" standalone="no"?><!DOCTYPE svg PUBLIC "-//W3C//DTD SVG 1.1//EN" "http://www.w3.org/Graphics/SVG/1.1/DTD/svg11.dtd"><svg t="1551375375202" class="icon" style="" viewBox="0 0 1024 1024" version="1.1" xmlns="http://www.w3.org/2000/svg" p-id="2245" xmlns:xlink="http://www.w3.org/1999/xlink" width="200" height="200"><defs><style type="text/css"></style></defs><path d="M763.792 90.16c-3.552-36.912-31.408-67.232-67.76-73.736a1044.128 1044.128 0 0 0-368.936 0c-36.344 6.504-64.208 36.824-67.76 73.744a2920.344 2920.344 0 0 0 0 557.616c3.552 36.912 31.416 67.24 67.76 73.744 19.192 3.432 38.432 6.264 57.696 8.616l-24.016 173.136h-43.52a17.408 17.408 0 0 0-17.16 14.48l-14.64 85.904a17.408 17.408 0 0 0 17.16 20.344h417.888a17.416 17.416 0 0 0 17.16-20.344l-14.64-85.896a17.408 17.408 0 0 0-17.168-14.48h-43.52l-23.984-173.144c19.256-2.352 38.496-5.184 57.68-8.616 36.344-6.504 64.208-36.824 67.76-73.744a2920.04 2920.04 0 0 0 0-557.616z m-72.632 847.944l8.712 51.072H323.248l8.704-51.072h359.208z m-295.224-34.824l23.496-169.416c14.84 1.312 29.688 2.304 44.552 2.984v166.432h-68.048z m102.864 0V737.808c4.256 0.048 8.512 0.144 12.768 0.144s8.512-0.096 12.776-0.144v165.472H498.8z m60.368 0V736.848c14.856-0.68 29.704-1.672 44.544-2.984l23.472 169.416h-68.016zM672.792 386.4h69.416c-0.064 10.96-0.2 21.928-0.392 32.888h-69.032a17.416 17.416 0 0 0 0 34.824h68.216a2860.72 2860.72 0 0 1-1.152 32.896h-67.064a17.416 17.416 0 0 0 0 34.824h65.424a2860.608 2860.608 0 0 1-1.92 32.88h-63.504a17.416 17.416 0 0 0 0 34.832h61.04c-1.408 18.32-2.936 36.64-4.696 54.912-2.064 21.432-18.192 39.024-39.224 42.792a1009.504 1009.504 0 0 1-356.68 0c-21.032-3.76-37.16-21.36-39.216-42.8-1.76-18.272-3.296-36.584-4.696-54.912h61.048a17.416 17.416 0 0 0 0-34.824H286.848a2906.48 2906.48 0 0 1-1.92-32.888h65.44a17.416 17.416 0 0 0 0-34.824H283.28a2860.72 2860.72 0 0 1-1.16-32.888h68.24a17.416 17.416 0 0 0 0-34.824H281.312c-0.192-10.96-0.32-21.928-0.392-32.896h69.44a17.416 17.416 0 0 0 0-34.824h-69.44c0.072-10.96 0.2-21.92 0.392-32.88h69.04a17.416 17.416 0 0 0 0-34.832H282.128c0.32-10.96 0.712-21.928 1.16-32.888h67.072a17.416 17.416 0 0 0 0-34.824h-65.44c0.584-10.968 1.224-21.936 1.928-32.888h63.52a17.416 17.416 0 0 0 0-34.824H289.304c1.4-18.336 2.936-36.648 4.696-54.936 2.056-21.44 18.184-39.032 39.216-42.8 4.888-0.864 9.784-1.648 14.672-2.448V64a17.416 17.416 0 0 0 34.824 0v-20.88c12.76-1.64 25.528-3.064 38.312-4.216V64a17.416 17.416 0 0 0 34.824 0V36.432c12.76-0.704 25.528-1.192 38.304-1.408v28.992a17.416 17.416 0 0 0 34.824 0V35.024c12.776 0.216 25.544 0.704 38.304 1.408v27.584a17.416 17.416 0 0 0 34.824 0V38.92c12.784 1.152 25.552 2.584 38.304 4.224v20.88a17.416 17.416 0 0 0 34.824 0V48.24c4.888 0.8 9.776 1.584 14.664 2.456 21.032 3.76 37.16 21.36 39.216 42.8 1.76 18.28 3.296 36.6 4.696 54.928h-61.04a17.416 17.416 0 0 0 0 34.824h63.504c0.704 10.96 1.344 21.92 1.92 32.888h-65.416a17.416 17.416 0 0 0 0 34.824h67.064c0.448 10.96 0.832 21.92 1.152 32.896h-68.216a17.416 17.416 0 0 0 0 34.824h69.04c0.184 10.96 0.32 21.92 0.384 32.88h-69.416a17.416 17.416 0 0 0 0 34.832z m-62.408-237.968H412.768a17.416 17.416 0 0 0 0 34.824h197.616a17.416 17.416 0 0 0 0-34.824z m0 67.712H412.768a17.416 17.416 0 0 0 0 34.824h197.616a17.416 17.416 0 0 0 0-34.824z m0 67.712H412.768a17.416 17.416 0 0 0 0 34.824h197.616a17.416 17.416 0 0 0 0-34.824z m0 67.712H412.768a17.416 17.416 0 0 0 0 34.824h197.616a17.416 17.416 0 0 0 0-34.824z m0 67.72H412.768a17.416 17.416 0 0 0 0 34.824h197.616a17.416 17.416 0 0 0 0-34.824z m0 67.712H412.768a17.416 17.416 0 0 0 0 34.824h197.616a17.416 17.416 0 0 0 0-34.824z m0 67.712H412.768a17.416 17.416 0 0 0 0 34.824h197.616a17.416 17.416 0 0 0 0-34.824z" fill="#1afa29" p-id="2246"></path></svg>