<?xml version="1.0" standalone="no"?><!DOCTYPE svg PUBLIC "-//W3C//DTD SVG 1.1//EN" "http://www.w3.org/Graphics/SVG/1.1/DTD/svg11.dtd"><svg t="1537099945877" class="icon" style="" viewBox="0 0 1024 1024" version="1.1" xmlns="http://www.w3.org/2000/svg" p-id="17454" xmlns:xlink="http://www.w3.org/1999/xlink" width="200" height="200"><defs><style type="text/css"></style></defs><path d="M584.411429 512l179.2-179.126857a50.761143 50.761143 0 1 0-71.753143-71.68L512.731429 440.173714 333.604571 261.12a50.761143 50.761143 0 1 0-71.68 71.753143L440.905143 512 261.851429 691.126857a50.761143 50.761143 0 1 0 71.753142 71.68L512.731429 583.826286l179.126857 179.126857a50.761143 50.761143 0 1 0 71.68-71.753143L584.557714 512zM512 0a512 512 0 0 1 512 512 512 512 0 0 1-512 512 512 512 0 0 1-512-512 512 512 0 0 1 512-512z" fill="#FF0000" p-id="17455"></path></svg>