<?xml version="1.0" standalone="no"?><!DOCTYPE svg PUBLIC "-//W3C//DTD SVG 1.1//EN" "http://www.w3.org/Graphics/SVG/1.1/DTD/svg11.dtd"><svg t="1536312813434" class="icon" style="" viewBox="0 0 1024 1024" version="1.1" xmlns="http://www.w3.org/2000/svg" p-id="1819" xmlns:xlink="http://www.w3.org/1999/xlink" width="200" height="200"><defs><style type="text/css"></style></defs><path d="M511.987261 1024a172.543618 172.543618 0 0 0 155.880368-98.705549H356.106892A172.543618 172.543618 0 0 0 511.987261 1024z m419.485842-246.738393h-0.50958a100.489077 100.489077 0 0 1-73.532321-96.820104V407.10306h-0.611496a357.470017 357.470017 0 0 0-295.556108-339.787608v-5.605375a61.710077 61.710077 0 0 0-123.369196 0v5.656333a357.470017 357.470017 0 0 0-295.556109 339.787608h-0.611495v271.402041h-0.305748c0 1.885444 0.560537 3.71993 0.560537 5.656332a103.750386 103.750386 0 0 1-61.659119 94.730829 49.276337 49.276337 0 0 0 12.077034 96.820104h839.073601a49.327295 49.327295 0 1 0 0-98.705548z m-716.825479 0a196.188106 196.188106 0 0 0 26.192386-98.195969V431.817666h0.611495c0-4.127594-0.611495-8.153272-0.611495-12.331824a259.070216 259.070216 0 1 1 518.140433 0c0 4.178552-0.407664 8.20423-0.611496 12.331824h0.611496v246.738393a195.933317 195.933317 0 0 0 26.651008 98.705548z m0 0" p-id="1820" fill="#969A97"></path></svg>