<?xml version="1.0" standalone="no"?><!DOCTYPE svg PUBLIC "-//W3C//DTD SVG 1.1//EN" "http://www.w3.org/Graphics/SVG/1.1/DTD/svg11.dtd"><svg t="1533632755687" class="icon" style="" viewBox="0 0 1024 1024" version="1.1" xmlns="http://www.w3.org/2000/svg" p-id="2474" xmlns:xlink="http://www.w3.org/1999/xlink" width="200" height="200"><defs><style type="text/css"></style></defs><path d="M96 32v832h800V32H96z m224 768H160v-160h160v160z m0-224H160v-160h160v160z m0-224H160V192h160v160z m256 448h-160v-160h160v160z m0-224h-160v-160h160v160z m0-224h-160V192h160v160z m256 448h-160v-160h160v160z m0-224h-160v-160h160v160z m0-224h-160V192h160v160z" p-id="2475" fill="#49B1F5"></path><path d="M96 928h800v64H96z" p-id="2476" fill="#49B1F5"></path></svg>