<?xml version="1.0" standalone="no"?><!DOCTYPE svg PUBLIC "-//W3C//DTD SVG 1.1//EN" "http://www.w3.org/Graphics/SVG/1.1/DTD/svg11.dtd"><svg t="1536936788529" class="icon" style="" viewBox="0 0 1024 1024" version="1.1" xmlns="http://www.w3.org/2000/svg" p-id="4370" xmlns:xlink="http://www.w3.org/1999/xlink" width="200" height="200"><defs><style type="text/css"></style></defs><path d="M743.096309 332.750523c0.511653-17.396205 8.18645-149.402705-60.886719-221.545792s-208.242811-76.005045-294.200532-47.979758c-72.271 0-90.562599 0-90.562599 0l18.419512 73.562413c0 0-66.00325 13.302981-54.235229 194.939831 0 0-41.443901-7.291057-34.792411 92.481298 45.428655 0 176.008666 11.895935 284.690948 100.520391 104.165408-88.624457 232.610802-100.392478 266.35944-100.392478C781.470291 408.475182 780.958638 338.89036 743.096309 332.750523z" p-id="4371" fill="#49B1F5"></path><path d="M959.418123 463.829907c-333.095377-9.209756-416.975786 112.558565-416.975786 112.558565s0 287.706631 0 382.945739c143.860479-72.633251 416.975786-50.387597 416.975786-50.387597-3.920286-29.025057-16.470113-84.184331-56.497759-128.606053L959.418123 463.829907z" p-id="4372" fill="#49B1F5"></path><path d="M64.581877 463.829907l55.533804 309.707714c-30.104645 31.783891-52.404534 76.680427-56.198953 135.407969 0 0 267.639596-33.161261 417.547815 50.387597 0-95.238085 0-382.945739 0-382.945739S398.753773 454.1832 64.581877 463.829907z" p-id="4373" fill="#49B1F5"></path></svg>