<?xml version="1.0" standalone="no"?><!DOCTYPE svg PUBLIC "-//W3C//DTD SVG 1.1//EN" "http://www.w3.org/Graphics/SVG/1.1/DTD/svg11.dtd"><svg t="1536317561932" class="icon" style="" viewBox="0 0 1024 1024" version="1.1" xmlns="http://www.w3.org/2000/svg" p-id="2553" xmlns:xlink="http://www.w3.org/1999/xlink" width="200" height="200"><defs><style type="text/css"></style></defs><path d="M667.573 511.265H512.352V267.336c0-11.512-10.617-22.129-22.129-22.129h-44.386c-11.512 0-22.128 10.617-22.128 22.13v310.442c0 11.512 10.616 22.193 22.192 22.193h221.736c11.512 0 22.193-10.617 22.193-22.193v-44.322c-0.064-11.576-10.745-22.192-22.257-22.192z m315.751-198.648C929.729 185.92 837.696 93.887 710.999 40.292a509.986 509.986 0 0 0-397.359 0C187.007 93.887 94.271 185.6 40.548 312.617c-53.595 126.697-53.595 270.662 0 397.359 53.723 127.017 146.204 219.433 273.156 273.156 126.697 53.595 270.662 53.595 397.36 0C838.08 929.41 929.728 836.61 983.387 709.976c53.659-127.017 53.659-270.406-0.064-397.359zM840.51 701.981c-33.513 57.753-79.945 103.545-138.337 137.442-57.752 33.513-121.516 50.525-189.757 50.525-68.305 0-132.261-16.628-190.717-50.525-57.752-33.513-103.993-79.69-137.506-137.442-33.896-58.455-50.589-122.411-50.589-190.716 0-68.306 17.076-132.07 50.59-189.822 33.896-58.456 79.689-104.888 137.505-138.337 58.456-33.897 122.412-50.525 190.717-50.525 68.24 0 132.005 17.076 189.757 50.525 58.456 33.897 104.44 79.945 138.337 138.337 33.513 57.752 50.59 121.516 50.59 189.822 0 68.305-16.693 132.26-50.59 190.716z" p-id="2554" fill="#1296db"></path></svg>