<?xml version="1.0" standalone="no"?><!DOCTYPE svg PUBLIC "-//W3C//DTD SVG 1.1//EN" "http://www.w3.org/Graphics/SVG/1.1/DTD/svg11.dtd"><svg t="1536249880089" class="icon" style="" viewBox="0 0 1024 1024" version="1.1" xmlns="http://www.w3.org/2000/svg" p-id="2075" xmlns:xlink="http://www.w3.org/1999/xlink" width="200" height="200"><defs><style type="text/css"></style></defs><path d="M512 170.666667C388.352 170.666667 278.645333 184.554667 212 194.666667 156.917333 203.029333 112.778667 245.493333 102.666667 302.666667 94.005333 351.349333 85.333333 422.826667 85.333333 512 85.333333 601.130667 94.005333 672.650667 102.666667 721.333333 112.821333 778.506667 156.917333 821.013333 212 829.333333 278.858667 839.445333 389.034667 853.333333 512 853.333333 634.965333 853.333333 745.098667 839.445333 812 829.333333 867.125333 821.013333 911.221333 778.549333 921.333333 721.333333 929.952 672.608 938.666667 600.917333 938.666667 512 938.666667 423.04 929.994667 351.392 921.333333 302.666667 911.221333 245.493333 867.082667 203.029333 812 194.666667 745.354667 184.554667 635.605333 170.666667 512 170.666667zM512 256C624.768 256 725.696 265.408 786.666667 274.666667 812.906667 278.634667 832.597333 299.786667 837.333333 326.666667 844.928 369.333333 853.333333 432.213333 853.333333 512 853.333333 591.744 844.885333 654.666667 837.333333 697.333333 832.554667 724.256 812.949333 745.365333 786.666667 749.333333 725.44 758.592 624.085333 768 512 768 399.872 768 298.517333 758.592 237.333333 749.333333 211.093333 745.365333 190.112 724.213333 185.333333 697.333333 177.781333 654.752 170.666667 592 170.666667 512 170.666667 431.957333 177.781333 369.248 185.333333 326.666667 190.112 299.786667 211.093333 278.634667 237.333333 274.666667 298.304 265.408 399.232 256 512 256zM384 341.333333 384 682.666667 682.666667 512 384 341.333333z" p-id="2076" fill="#49B1F5"></path></svg>