<?xml version="1.0" standalone="no"?><!DOCTYPE svg PUBLIC "-//W3C//DTD SVG 1.1//EN" "http://www.w3.org/Graphics/SVG/1.1/DTD/svg11.dtd"><svg t="1540694629830" class="icon" style="" viewBox="0 0 1024 1024" version="1.1" xmlns="http://www.w3.org/2000/svg" p-id="3030" xmlns:xlink="http://www.w3.org/1999/xlink" width="200" height="200"><defs><style type="text/css"></style></defs><path d="M510.821151 593.609693c-23.050995 0-41.735543-18.687618-41.735543-41.735543l0-229.548046c0-23.048949 18.684548-41.733497 41.735543-41.733497 23.050995 0 41.735543 18.684548 41.735543 41.733497l0 229.548046C552.556695 574.922075 533.871123 593.609693 510.821151 593.609693zM510.821151 747.520061c-27.376511 0-49.568952-22.194488-49.568952-49.570999-0.002047-27.380604 22.192442-49.572022 49.568952-49.572022 27.378557 0 49.572022 22.193465 49.572022 49.572022C560.39215 725.32455 538.199709 747.520061 510.821151 747.520061zM934.268326 624.430652c-10.973936 40.956807-27.675316 78.788437-48.566112 113.341395l-0.026606-0.016373c-7.226588 12.441357-20.543895 20.903076-35.96819 20.903076-23.050995 0-41.735543-18.684548-41.735543-41.735543 0-7.201006 1.990331-13.875009 5.202489-19.786649l-0.774643-0.433882c17.577331-28.553313 31.504528-59.995419 40.627303-94.03877 50.616818-188.914604-61.489446-383.093095-250.398934-433.707866-188.912557-50.620911-383.091048 61.489446-433.710936 250.398934-50.616818 188.910511 61.491493 383.086955 250.403027 433.705819 98.099249 26.28669 197.434651 8.397251 277.533944-41.046858l0.273223 0.490164c5.9055-3.200902 12.568247-5.186116 19.757996-5.186116 23.050995 0 41.735543 18.684548 41.735543 41.733497 0 15.467273-8.509814 28.816303-21.0095 36.026518l0.248663 0.448208c-98.5669 59.696614-220.205261 80.954777-340.305593 48.773843C163.77811 871.662453 25.045419 631.365598 87.684038 397.591297 150.32675 163.809833 390.619512 25.080212 624.39586 87.720877 858.174254 150.362566 996.908992 390.653281 934.268326 624.430652z" p-id="3031" fill="#053a5c"></path></svg>