<?xml version="1.0" standalone="no"?><!DOCTYPE svg PUBLIC "-//W3C//DTD SVG 1.1//EN" "http://www.w3.org/Graphics/SVG/1.1/DTD/svg11.dtd"><svg t="1541856066506" class="icon" style="" viewBox="0 0 1026 1024" version="1.1" xmlns="http://www.w3.org/2000/svg" p-id="2409" xmlns:xlink="http://www.w3.org/1999/xlink" width="200.390625" height="200"><defs><style type="text/css"></style></defs><path d="M765.934371 880.824526c-86.167617 60.636471-191.483593 89.35901-306.373749 76.593437C245.737277 931.886818 79.78483 756.360191 63.827864 542.536846 47.870898 264.885637 287.225389 35.105325 568.067992 70.210651c194.674986 25.531146 351.053253 175.526627 382.967185 367.010219 19.148359 114.890156-6.382786 223.397525-60.636471 309.565141-9.57418 12.765573-6.382786 28.722539 3.191393 41.488112 15.956966 15.956966 38.296719 12.765573 51.062292-6.382786 63.827864-105.315976 95.741796-232.971704 70.21065-367.01022C973.374929 210.631952 810.613876 47.870898 609.556103 9.57418 261.694243-54.253685-38.296719 232.971704 6.382786 577.642171c28.722539 232.971704 217.014738 418.072511 446.79505 443.603657 130.847122 12.765573 252.120064-19.148359 347.86186-89.35901 15.956966-12.765573 19.148359-35.105325 6.382786-47.870898-12.765573-12.765573-28.722539-12.765573-41.488111-3.191394zM561.685205 510.622914c-22.339752 12.765573-38.296719 31.913932-51.062291 51.062291" fill="#053a5c" p-id="2410"></path><path d="M686.14954 411.689724c0 25.531146-6.382786 47.870898-15.956966 70.210651-12.765573 31.913932-38.296719 57.445078-67.019257 76.593437-3.191393 3.191393-6.382786 3.191393-9.57418 6.382786-25.531146 12.765573-54.253685 22.339752-86.167616 22.339753v-25.531146c12.765573-22.339752 31.913932-38.296719 51.062291-51.062291l3.191393-3.191393c31.913932-19.148359 54.253685-54.253685 54.253685-95.741797 0-73.402044-67.019257-127.655728-143.612695-108.507369-31.913932 9.57418-57.445078 31.913932-70.21065 63.827864-6.382786 19.148359-9.57418 35.105325-9.57418 54.253685 3.191393 19.148359-12.765573 35.105325-31.913932 35.105325h-3.191393c-15.956966 0-28.722539-12.765573-31.913932-25.531145-3.191393-25.531146 0-54.253685 12.765572-82.976224 25.531146-57.445078 76.593437-102.124583 140.421302-111.698762 114.890156-9.57418 207.440559 73.402044 207.440558 175.526626z" fill="#053a5c" p-id="2411"></path><path d="M545.728239 660.618395c0-38.296719 19.148359-73.402044 47.870898-92.550403 3.191393 0 3.191393-3.191393 6.382787-3.191394v-70.21065c-12.765573 3.191393-22.339752 9.57418-35.105326 15.956966 0 0-3.191393 0-3.191393 3.191393-22.339752 12.765573-38.296719 31.913932-51.062291 51.062291-19.148359 28.722539-28.722539 60.636471-28.722539 95.741797h63.827864z" fill="#053a5c" p-id="2412"></path><path d="M513.814307 660.618395m-31.913932 0a31.913932 31.913932 0 1 0 63.827864 0 31.913932 31.913932 0 1 0-63.827864 0Z" fill="#053a5c" p-id="2413"></path><path d="M517.0057 756.360191m-31.913932 0a31.913932 31.913932 0 1 0 63.827864 0 31.913932 31.913932 0 1 0-63.827864 0Z" fill="#053a5c" p-id="2414"></path></svg>